<?xml version="1.0" encoding="UTF-8"?><svg id="a" xmlns="http://www.w3.org/2000/svg" viewBox="0 0 76 19"><rect y="-3.06" width="47.18" height="19.06" fill="none"/><path d="M2.53,16c-.09,0-.16,0-.23-.03-.06-.02-.1-.06-.1-.11s.03-.1.1-.14c.06-.04.15-.07.26-.09.3-.06.53-.15.68-.28s.23-.33.23-.61v-4.75c0-.35,0-.62-.02-.8-.02-.18-.04-.3-.07-.37-.03-.07-.08-.11-.13-.13-.1-.02-.2-.04-.32-.04-.12,0-.26,0-.42,0h-.47c-.21,0-.41.05-.62.14s-.36.22-.46.39c-.03.05-.08.11-.14.2-.06.08-.13.16-.2.22-.07.06-.14.09-.22.09-.04,0-.07-.02-.09-.05-.02-.03-.03-.07-.03-.12,0-.09.02-.18.07-.26.13-.26.22-.48.28-.67.06-.19.1-.42.13-.68.02-.13.05-.21.1-.24.05-.03.1-.05.14-.05.04,0,.09.05.16.15.07.1.12.18.16.25.06.07.18.13.36.17s.34.06.49.06h4.33c.25-.01.45-.03.62-.06.16-.03.3-.07.4-.12.11-.06.2-.12.26-.19.06-.07.15-.1.25-.1.03,0,.06.03.07.08.02.05.02.11.02.17,0,.03,0,.08-.01.14,0,.06-.02.12-.02.16-.03.15-.06.27-.09.36-.03.09-.05.17-.06.25-.01.08-.02.17-.02.29v.17c0,.1-.02.19-.05.28-.03.09-.08.13-.14.13s-.12-.04-.16-.13c-.04-.08-.08-.21-.12-.37-.05-.21-.15-.37-.32-.48-.16-.11-.43-.17-.81-.17h-1.01c-.16,0-.28.03-.37.08-.09.05-.15.17-.17.36s-.04.49-.04.91v4.75c0,.27.08.47.23.6.16.13.39.22.69.29.11.02.2.05.26.08.06.03.09.08.09.14,0,.05-.03.08-.08.11-.06.02-.13.04-.23.04-.2,0-.38,0-.55-.02-.17-.01-.33-.02-.49-.03s-.33-.01-.5-.01c-.19,0-.37,0-.54.01s-.34.02-.52.03c-.18.01-.37.02-.58.02Z" fill="#231f20"/><path d="M8,16.01c-.1,0-.18-.01-.24-.04-.06-.03-.1-.07-.1-.13,0-.06.03-.12.1-.16s.15-.08.26-.12c.22-.06.41-.16.59-.29.18-.13.32-.32.43-.59.22-.49.42-.95.6-1.4.18-.44.36-.88.53-1.31.17-.43.34-.88.52-1.34.18-.46.36-.95.54-1.47.07-.18.12-.34.16-.46.03-.12.05-.23.06-.33.1-.02.2-.05.29-.08.09-.03.18-.07.29-.13.1-.05.17-.12.22-.21.05-.09.09-.16.13-.2.02,0,.03-.01.05-.02.02,0,.04.01.05.04.02.04.04.08.05.13.01.05.03.1.04.16.18.58.37,1.18.57,1.78s.39,1.19.58,1.77c.19.58.37,1.11.54,1.6s.31.92.43,1.29c.09.26.19.47.31.61.12.14.25.24.38.31.14.07.28.12.44.15.12.02.21.06.27.11.06.05.09.1.09.17,0,.05-.03.08-.09.1-.06.02-.13.03-.22.03-.13,0-.3,0-.5-.02-.21-.01-.42-.02-.65-.03-.22,0-.43-.01-.61-.01h-.5c-.18,0-.36,0-.52.01s-.31.01-.43.01c-.1,0-.17-.01-.23-.04-.06-.03-.09-.07-.09-.11,0-.06.04-.12.11-.16.07-.04.16-.07.25-.08.27-.05.47-.12.59-.22.12-.1.17-.22.15-.38,0-.14-.04-.31-.08-.51s-.1-.42-.17-.65c-.06-.23-.12-.44-.18-.63-.02-.06-.04-.1-.08-.12-.04-.02-.11-.02-.2-.02h-2.22s-.08.01-.11.04c-.03.03-.06.08-.1.16-.02.1-.06.22-.11.37-.05.15-.1.3-.15.47-.05.16-.09.32-.13.46-.04.14-.06.24-.07.31-.02.2.03.36.15.47.12.12.31.21.56.27.24.06.36.14.36.24,0,.06-.03.09-.09.11-.06.02-.14.03-.23.03-.15,0-.33,0-.53-.01-.2,0-.41-.01-.64-.01-.26,0-.5.01-.74.04-.24.02-.47.04-.68.04ZM10.85,12.54h1.75c.11,0,.17-.02.17-.06,0-.02,0-.04,0-.06,0-.02-.01-.04-.02-.07l-.89-2.84c-.04-.13-.07-.19-.1-.19-.02,0-.04.06-.08.18l-1.04,2.86s-.02.08-.02.1c0,.04.02.07.07.08.04.01.1.02.17.02Z" fill="#231f20"/><path d="M17.18,16.01c-.1,0-.17-.01-.23-.04-.06-.02-.08-.06-.08-.11,0-.1.12-.18.35-.23.3-.06.52-.15.66-.27s.22-.31.22-.59v-5.42c0-.27-.06-.47-.17-.6-.11-.13-.32-.21-.61-.25-.12-.02-.21-.05-.26-.09-.06-.04-.08-.09-.08-.15,0-.05.03-.09.08-.11.06-.03.13-.04.23-.04.23,0,.42,0,.55.01.14,0,.27.01.39.02s.27,0,.44,0,.31,0,.44-.02c.12-.01.26-.02.42-.04.16-.01.36-.02.61-.02.94,0,1.65.13,2.12.4.47.27.71.73.71,1.39,0,.26-.05.5-.15.71-.1.21-.21.37-.33.48-.13.12-.25.22-.37.29-.12.07-.27.14-.46.2-.03,0-.05.03-.05.05s.02.05.05.07c.19.06.39.13.59.21s.4.2.58.34c.18.14.33.32.44.55.11.23.16.52.16.87,0,.44-.07.79-.21,1.05-.14.26-.31.46-.5.59-.19.14-.37.25-.54.34-.26.13-.55.23-.88.29-.33.07-.72.1-1.19.1-.16,0-.35,0-.58-.02-.23-.02-.47-.02-.74-.02-.19,0-.37,0-.53.01s-.33.02-.5.03-.36.02-.58.02ZM19.88,11.51c.21,0,.42-.02.64-.07.22-.05.44-.14.65-.28.08-.05.18-.16.3-.34.12-.18.18-.44.18-.77,0-.27-.04-.53-.13-.76s-.24-.43-.47-.58c-.23-.15-.55-.22-.98-.22-.29,0-.48.04-.58.13-.1.09-.15.22-.15.4v2.05c0,.19.06.31.19.37.13.05.24.08.34.08ZM20.22,15.45c.32,0,.61-.08.88-.23.27-.15.48-.36.65-.63.16-.27.25-.57.25-.89,0-.3-.05-.55-.14-.75-.09-.2-.2-.35-.32-.47-.12-.12-.23-.21-.32-.26-.1-.06-.24-.13-.44-.19-.2-.06-.46-.1-.78-.1-.21,0-.37.04-.47.13-.11.09-.16.18-.16.29v2.29c0,.3.08.52.23.64.15.12.36.18.64.18Z" fill="#231f20"/><path d="M25.04,16.01c-.09,0-.16-.02-.22-.05-.06-.03-.08-.07-.08-.11,0-.06.03-.11.1-.15s.12-.06.16-.07c.3-.07.53-.16.68-.28s.22-.3.22-.56v-5.53c0-.19-.02-.33-.06-.43s-.11-.16-.22-.21c-.11-.05-.26-.09-.46-.13-.23-.05-.35-.13-.35-.24,0-.06.03-.1.09-.12.06-.02.13-.04.22-.04.2,0,.38,0,.54.01s.31.02.46.02c.14,0,.3.01.48.01s.36,0,.53,0c.17,0,.34,0,.52-.02.18,0,.36-.01.56-.01.1,0,.17.01.22.03.05.02.08.06.08.11,0,.06-.03.11-.08.15-.06.04-.14.07-.26.09-.3.07-.54.15-.72.23-.18.08-.26.24-.26.47v5.56c0,.25.05.43.16.53.11.11.33.16.67.16h1.39c.21,0,.39-.03.55-.1.16-.06.28-.14.37-.22.15-.14.27-.27.35-.39s.17-.29.27-.5c.04-.09.08-.17.13-.25.05-.08.1-.12.16-.12s.1.03.12.08c.02.05.04.1.04.15,0,.02,0,.04-.01.06,0,.02-.01.05-.01.07-.06.22-.11.41-.16.58-.05.17-.09.33-.11.48-.03.15-.05.32-.07.49,0,.06-.02.11-.05.15s-.07.07-.13.07c-.31,0-.64,0-1-.01-.35,0-.71-.01-1.07-.02-.36,0-.71-.01-1.06-.02-.35,0-.68-.01-1-.01-.19,0-.41,0-.64.01-.24,0-.45.02-.65.03-.2.01-.32.02-.37.02Z" fill="#231f20"/><path d="M32.72,16.01c-.1,0-.17-.01-.23-.04-.06-.02-.08-.06-.08-.11,0-.1.12-.18.35-.23.3-.06.51-.15.64-.27.13-.12.2-.31.2-.59v-5.42c0-.27-.06-.47-.17-.59-.11-.12-.32-.21-.61-.26-.12-.02-.21-.06-.26-.1-.06-.04-.08-.09-.08-.14,0-.05.03-.09.08-.11.06-.03.13-.04.23-.04.26,0,.5,0,.71.01s.42.02.62.02c.2,0,.43.01.67.01.32,0,.66,0,1.01,0,.36,0,.68,0,.97-.02.27,0,.5,0,.68-.02.18-.01.29-.02.32-.02.05,0,.1,0,.15.03.05.02.08.06.09.11.04.25.08.49.13.73.04.24.07.44.07.62,0,.08-.02.13-.05.16-.04.03-.07.04-.11.04s-.07-.01-.1-.04-.05-.06-.07-.11c-.06-.16-.11-.31-.16-.44s-.1-.23-.17-.29c-.1-.11-.22-.2-.36-.25-.14-.06-.29-.08-.46-.08h-1.34c-.1,0-.21.04-.33.11-.12.08-.17.18-.17.32v2.45c0,.08.02.14.07.19s.1.07.17.07h1.14c.23,0,.39-.05.48-.16s.16-.26.22-.48c.06-.16.13-.24.23-.24.04,0,.08.02.11.05.03.04.05.09.05.16,0,.05,0,.13-.01.24,0,.11-.02.23-.02.35s-.01.22-.01.29c0,.09,0,.19,0,.32,0,.12,0,.25.02.37,0,.12.01.21.01.26,0,.07,0,.13-.02.17-.02.04-.05.07-.09.07-.13,0-.22-.12-.29-.35-.05-.21-.11-.36-.2-.47s-.21-.16-.37-.16h-1.12c-.13,0-.22.02-.28.06s-.09.12-.09.25v2.29c0,.28.06.47.18.58.12.11.3.16.55.16h.95c.22,0,.42-.02.59-.05s.31-.09.43-.18c.14-.1.26-.22.36-.37.1-.15.21-.34.32-.56.03-.05.06-.09.1-.11.03-.03.07-.04.11-.03.05,0,.08.02.1.05s.03.08.03.14c0,.09-.02.22-.06.4-.04.18-.09.36-.15.55-.06.19-.11.36-.16.49-.02.06-.05.1-.08.14-.03.04-.07.05-.12.05-.29,0-.59,0-.9-.01s-.63-.02-.96-.02c-.33,0-.66-.02-.98-.02s-.65-.01-.97-.01c-.17,0-.33,0-.48.02-.15.01-.31.02-.46.04-.16.01-.33.02-.53.02Z" fill="#231f20"/><rect x="42.46" y="4.78" width="36.72" height="11.22" fill="none"/><path d="M43.04,15.74c.01-.18.02-.35.02-.5,0-.15,0-.3,0-.45v-1.68c0-.19,0-.39,0-.6,0-.21,0-.4,0-.58,0-.18,0-.33,0-.46,0-.13,0-.22-.01-.27l-.58-.07-.02-.28,1.22-.34.17.12c0,.22-.01.44-.02.65,0,.22-.01.46-.02.75,0,.28-.01.63-.02,1.05h.02c.12-.16.28-.3.47-.41.19-.11.4-.17.62-.17.26,0,.5.06.72.19.22.13.39.31.53.55.13.24.2.52.2.86,0,.36-.09.69-.26.98s-.41.52-.71.68c-.3.16-.64.25-1.02.25-.23,0-.46-.03-.69-.07-.22-.05-.43-.12-.62-.2ZM44.54,15.56c.28,0,.52-.11.71-.33.19-.22.29-.54.29-.96,0-.4-.09-.7-.28-.89-.19-.19-.42-.29-.7-.29-.15,0-.29.03-.42.09-.14.06-.25.16-.35.28v1.85c.1.07.21.13.33.17.12.04.26.06.42.06Z" fill="#231f20"/><path d="M48.68,16.01c-.35,0-.65-.07-.91-.22s-.46-.35-.61-.61c-.15-.26-.22-.56-.22-.9,0-.36.08-.68.24-.94.16-.26.38-.47.64-.61.27-.15.56-.22.88-.22s.62.07.87.22c.25.15.44.35.58.61.14.26.2.56.2.9s-.07.63-.22.9c-.15.27-.35.48-.61.64-.26.16-.54.24-.85.24ZM48.76,15.61c.16,0,.3-.05.42-.15.12-.1.21-.24.27-.42.06-.18.1-.39.1-.63,0-.45-.08-.81-.25-1.09-.17-.28-.4-.42-.68-.42-.25,0-.45.11-.61.34-.15.22-.23.52-.23.89,0,.29.04.54.12.77.08.22.2.4.35.53.15.13.32.19.51.19Z" fill="#231f20"/><path d="M52.71,16.01c-.35,0-.65-.07-.91-.22s-.46-.35-.61-.61c-.15-.26-.22-.56-.22-.9,0-.36.08-.68.24-.94.16-.26.38-.47.64-.61.27-.15.56-.22.88-.22s.62.07.87.22c.25.15.44.35.58.61.14.26.2.56.2.9s-.07.63-.22.9c-.15.27-.35.48-.61.64-.26.16-.54.24-.85.24ZM52.79,15.61c.16,0,.3-.05.42-.15.12-.1.21-.24.27-.42.06-.18.1-.39.1-.63,0-.45-.08-.81-.25-1.09-.17-.28-.4-.42-.68-.42-.25,0-.45.11-.61.34-.15.22-.23.52-.23.89,0,.29.04.54.12.77.08.22.2.4.35.53.15.13.32.19.51.19Z" fill="#231f20"/><path d="M54.95,15.95l-.02-.3.45-.12c.01-.05.02-.14.02-.27,0-.13.01-.28.02-.46,0-.18,0-.37,0-.58v-1.09c0-.19,0-.39,0-.59,0-.2,0-.39,0-.56,0-.18,0-.33-.01-.46,0-.13,0-.23,0-.29l-.58-.08-.02-.28,1.22-.34.17.12c0,.17-.01.33-.02.49,0,.16-.01.33-.02.51,0,.18,0,.37,0,.58v2.56c0,.14,0,.25,0,.36,0,.1.01.19.02.25,0,.07,0,.11,0,.14l.48.12-.02.3h-1.68ZM58.68,15.95h-1.02c-.09-.12-.16-.21-.22-.28-.06-.07-.11-.13-.17-.2l-1.03-1.12h-.21v-.22s.29-.08.29-.08l1.11-1.08-.52-.09.02-.31h1.62l.02.31-.52.09-1.37,1.2.1-.3,1.14,1.23c.08.08.16.17.24.25.08.09.15.15.2.2l.34.07-.02.31Z" fill="#231f20"/><path d="M60.17,16.01c-.2,0-.4-.02-.6-.07-.2-.04-.37-.11-.51-.18l-.04-.86h.42l.16.56c.18.12.39.18.62.18.17,0,.31-.04.41-.12s.15-.18.15-.32-.05-.24-.14-.34c-.1-.1-.29-.2-.57-.32-.38-.15-.64-.3-.79-.46-.15-.16-.23-.35-.23-.59,0-.19.06-.36.18-.51.12-.15.28-.27.49-.35.21-.09.45-.13.73-.13.15,0,.3.01.46.04.16.03.29.07.39.11l.09.84h-.41l-.18-.54c-.05-.03-.11-.06-.19-.07-.07-.02-.15-.03-.23-.03-.18,0-.32.04-.43.12-.11.08-.16.19-.16.31,0,.15.06.26.18.36.12.09.33.2.63.34.34.15.58.3.72.46.14.15.21.34.21.57,0,.3-.13.54-.39.72s-.59.28-.99.28Z" fill="#231f20"/><path d="M65.02,17.67l-.02-.3.48-.12s0-.07,0-.14c0-.07,0-.16.01-.28,0-.12,0-.25.01-.41,0-.16,0-.33,0-.53l.02-1.8c0-.16,0-.31-.02-.46-.01-.15-.03-.28-.05-.39l-.5-.11v-.29l1.16-.31.16.13-.05.44h.02c.14-.18.3-.33.48-.43.18-.1.37-.16.58-.16.27,0,.52.07.74.21.22.14.4.33.53.58.13.25.2.54.2.86s-.08.66-.23.94-.37.5-.64.67-.59.25-.95.25c-.11,0-.23-.01-.35-.04s-.24-.05-.34-.09v.56c0,.19,0,.35.01.5,0,.15.01.24.02.3l.64.11-.02.32h-1.89ZM66.97,15.57c.19,0,.36-.05.51-.14s.26-.23.35-.41c.08-.18.13-.41.13-.68,0-.25-.03-.48-.12-.66-.08-.18-.2-.33-.34-.43-.14-.1-.31-.15-.49-.15-.15,0-.28.03-.41.1-.13.07-.24.17-.35.3v1.85c.09.07.2.12.33.16s.25.06.38.06Z" fill="#231f20"/><path d="M69.3,15.95l-.02-.3.48-.12s.01-.06.02-.13c0-.07.01-.16.02-.27,0-.11,0-.25,0-.41v-.6c0-.17,0-.33-.01-.48-.01-.15-.03-.28-.05-.39l-.5-.11v-.29l1.15-.31.14.12-.03.64h.02c.15-.29.31-.49.46-.59.16-.1.31-.16.46-.16.12,0,.23.03.32.1.09.07.13.17.13.3s-.05.24-.14.31c-.09.07-.21.11-.35.11-.1,0-.2-.02-.29-.06-.09-.04-.18-.1-.27-.19l.16.04c-.09.06-.17.15-.26.25-.08.1-.16.23-.23.38v.69c.01.15.02.3.02.44,0,.14.01.27.02.38,0,.11.01.19.02.24l.68.11-.02.32h-1.94Z" fill="#231f20"/><path d="M73.9,16.01c-.35,0-.65-.07-.91-.22s-.46-.35-.61-.61c-.15-.26-.22-.56-.22-.9,0-.36.08-.68.24-.94.16-.26.38-.47.64-.61.27-.15.56-.22.88-.22s.62.07.87.22c.25.15.44.35.58.61.14.26.2.56.2.9s-.07.63-.22.9c-.15.27-.35.48-.61.64-.26.16-.54.24-.85.24ZM73.97,15.61c.16,0,.3-.05.42-.15.12-.1.21-.24.27-.42.06-.18.1-.39.1-.63,0-.45-.08-.81-.25-1.09-.17-.28-.4-.42-.68-.42-.25,0-.45.11-.61.34-.15.22-.23.52-.23.89,0,.29.04.54.12.77.08.22.2.4.35.53.15.13.32.19.51.19Z" fill="#231f20"/></svg>