<?xml version="1.0" encoding="UTF-8"?><svg id="a" xmlns="http://www.w3.org/2000/svg" viewBox="0 0 76 19"><rect y="3.63" width="60.94" height="11.74" fill="none"/><path d="M3.38,15.38c-.12,0-.22-.01-.3-.04-.09-.03-.13-.08-.13-.15s.04-.14.13-.18c.09-.05.2-.09.35-.12.41-.08.71-.2.91-.37s.3-.44.3-.82v-6.34c0-.47-.01-.82-.03-1.06s-.05-.41-.1-.5c-.04-.09-.1-.15-.18-.17-.13-.03-.27-.05-.43-.06-.16,0-.35,0-.56,0h-.62c-.28,0-.55.06-.82.18s-.48.3-.62.52c-.04.06-.1.15-.18.26-.08.11-.17.21-.26.29-.1.08-.19.12-.29.12-.05,0-.09-.02-.12-.06-.03-.04-.04-.1-.04-.16,0-.12.03-.23.1-.35.17-.34.29-.64.37-.9.07-.26.13-.56.18-.91.02-.17.06-.28.13-.32.06-.04.13-.06.19-.06.05,0,.12.07.22.2.09.13.16.24.22.33.09.1.25.17.48.22.23.05.45.08.66.08l5.78-.02c.33,0,.61-.02.82-.06.22-.04.4-.1.54-.16.15-.07.27-.16.35-.25.09-.09.2-.14.34-.14.04,0,.07.04.1.1.02.07.03.15.03.23,0,.04,0,.11-.02.19-.01.08-.02.15-.03.21-.04.2-.08.36-.12.48-.04.12-.06.23-.08.33-.02.1-.02.23-.02.39v.22c0,.13-.02.25-.06.37s-.11.18-.19.18-.15-.06-.21-.17-.11-.27-.16-.49c-.06-.28-.21-.49-.42-.64s-.58-.22-1.08-.22h-1.34c-.21,0-.38.04-.5.1-.12.07-.19.23-.23.48-.04.25-.06.65-.06,1.21v6.34c0,.36.1.63.31.8.21.17.51.3.92.38.15.03.26.07.34.11.08.04.12.11.12.19,0,.06-.04.11-.11.14-.07.03-.18.05-.3.05-.27,0-.51,0-.74-.02s-.44-.03-.66-.04c-.21-.01-.44-.02-.67-.02-.26,0-.5,0-.72.02s-.45.02-.69.04c-.23.02-.49.02-.77.02Z" fill="#231f20"/><path d="M10.67,15.4c-.13,0-.23-.02-.32-.06-.09-.04-.13-.09-.13-.17,0-.09.04-.16.13-.21.08-.05.2-.11.35-.16.29-.09.55-.21.78-.38.23-.17.43-.43.58-.78.29-.65.55-1.27.8-1.86.25-.59.48-1.18.7-1.75s.45-1.17.69-1.78c.23-.61.47-1.27.72-1.96.1-.25.17-.45.21-.62.04-.17.07-.31.08-.44.14-.03.27-.07.38-.1.12-.04.25-.09.38-.17.13-.06.23-.16.3-.28.07-.12.12-.21.17-.26.02,0,.04-.02.07-.02.03,0,.05.01.07.06.03.05.06.11.07.18.02.06.03.13.06.21.25.78.5,1.57.76,2.38.26.81.52,1.59.78,2.36.26.77.5,1.48.72,2.14.22.66.42,1.23.58,1.72.12.35.26.62.42.81.16.19.33.33.51.42s.38.16.59.2c.16.03.28.08.36.14.08.06.12.14.12.22,0,.06-.04.11-.12.14-.08.03-.18.04-.3.04-.17,0-.4,0-.67-.02-.28-.02-.57-.03-.86-.04-.3-.01-.57-.02-.82-.02h-.67c-.25,0-.48,0-.7.02s-.41.02-.57.02c-.13,0-.23-.02-.31-.06s-.12-.09-.12-.15c0-.08.05-.15.14-.21.1-.05.21-.09.34-.11.36-.06.63-.16.79-.29s.23-.3.2-.51c-.01-.18-.05-.41-.11-.68-.06-.27-.14-.56-.22-.86-.09-.3-.17-.58-.24-.84-.02-.09-.06-.14-.11-.16-.05-.02-.14-.03-.27-.03h-2.96c-.05,0-.1.02-.14.06-.04.04-.09.11-.13.22-.03.13-.08.29-.15.49s-.14.41-.2.62-.12.42-.17.61c-.05.19-.08.32-.09.41-.03.27.03.48.2.63.17.16.41.28.74.36.32.09.48.19.48.32,0,.07-.04.12-.12.15-.08.03-.18.04-.31.04-.2,0-.44,0-.7-.02s-.55-.02-.85-.02c-.34,0-.67.02-.99.05s-.62.05-.91.05ZM14.46,10.78h2.34c.15,0,.22-.03.22-.08,0-.03,0-.06,0-.08,0-.02-.01-.05-.02-.1l-1.18-3.79c-.05-.17-.1-.26-.13-.26-.02,0-.06.08-.11.24l-1.39,3.81c-.02.06-.03.11-.03.13,0,.05.03.09.09.1.06.02.14.02.23.02Z" fill="#231f20"/><path d="M22.91,15.4c-.13,0-.23-.02-.3-.05s-.11-.08-.11-.14c0-.14.15-.24.46-.3.39-.08.69-.21.88-.36.19-.15.29-.42.29-.79v-7.23c0-.36-.07-.63-.22-.8s-.42-.28-.82-.34c-.16-.02-.28-.06-.35-.12s-.11-.12-.11-.2c0-.06.04-.11.11-.15.07-.04.18-.06.3-.06.31,0,.55,0,.74.02.18.01.35.02.52.02.17,0,.36,0,.58,0s.42,0,.58-.02c.17-.02.35-.03.56-.05.21-.02.48-.02.81-.02,1.26,0,2.2.18,2.83.54s.94.97.94,1.85c0,.35-.07.67-.2.94-.13.28-.28.49-.44.64-.17.16-.33.29-.49.38-.15.1-.36.19-.62.27-.04.01-.06.04-.06.07s.02.07.06.09c.26.07.52.17.79.28.27.11.53.26.78.45.25.19.44.43.58.74s.22.69.22,1.16c0,.59-.09,1.05-.28,1.4-.19.35-.41.61-.66.79-.26.18-.5.33-.72.45-.34.17-.73.3-1.17.39-.44.09-.97.14-1.58.14-.21,0-.47-.01-.78-.03s-.63-.03-.98-.03c-.26,0-.49,0-.71.02-.22.01-.44.02-.66.04-.22.02-.48.02-.77.02ZM26.51,9.4c.28,0,.56-.03.86-.1.29-.06.58-.19.87-.37.11-.06.24-.22.4-.46.16-.24.24-.58.24-1.03,0-.36-.06-.7-.17-1.02-.11-.31-.32-.57-.62-.77-.3-.2-.74-.3-1.3-.3-.38,0-.64.06-.78.18s-.2.29-.2.53v2.74c0,.26.08.42.26.49.17.07.32.1.45.1ZM26.96,14.65c.43,0,.82-.1,1.18-.3.36-.2.65-.48.86-.84.22-.36.33-.75.33-1.19,0-.41-.06-.74-.18-1-.12-.26-.26-.47-.42-.63-.16-.16-.3-.28-.43-.35-.13-.08-.33-.17-.59-.26-.27-.08-.61-.13-1.04-.13-.28,0-.49.06-.63.18-.14.12-.22.25-.22.38v3.06c0,.41.1.69.3.85s.49.24.85.24Z" fill="#231f20"/><path d="M33.39,15.4c-.12,0-.21-.02-.29-.06-.08-.04-.11-.09-.11-.14,0-.08.04-.15.13-.2s.15-.08.21-.09c.41-.1.71-.22.9-.37.2-.15.3-.4.3-.75v-7.38c0-.26-.03-.45-.08-.57-.05-.12-.15-.22-.3-.28s-.35-.12-.62-.18c-.31-.06-.46-.17-.46-.32,0-.07.04-.13.12-.16s.18-.05.3-.05c.27,0,.51,0,.72.02.21.01.42.02.61.03.19.01.41.02.64.02s.48,0,.7,0c.22,0,.45-.01.69-.02.23-.01.49-.02.75-.02.13,0,.23.01.3.04.07.03.1.08.1.15,0,.09-.04.15-.11.2s-.19.09-.35.12c-.41.1-.73.2-.96.31-.23.11-.35.32-.35.63v7.41c0,.33.07.57.22.71.14.14.44.22.89.22h1.86c.28,0,.52-.04.73-.13.21-.08.37-.18.49-.29.2-.18.36-.35.47-.52.11-.17.23-.39.36-.66.05-.12.11-.23.18-.34s.13-.16.21-.16.13.04.16.1c.03.07.05.14.05.2,0,.02,0,.05-.02.08s-.02.06-.02.1c-.07.29-.14.54-.21.77s-.11.44-.15.64c-.04.2-.07.42-.09.66-.01.08-.03.14-.06.2s-.09.09-.18.09c-.42,0-.86,0-1.33-.02-.47-.01-.94-.02-1.42-.02-.48,0-.95-.01-1.42-.02-.46-.01-.91-.02-1.34-.02-.26,0-.54,0-.86.02s-.6.02-.86.04c-.26.02-.42.02-.49.02Z" fill="#231f20"/><path d="M43.63,15.4c-.13,0-.23-.02-.3-.05s-.11-.08-.11-.14c0-.14.15-.24.46-.3.39-.08.68-.21.86-.36.18-.15.26-.42.26-.79v-7.23c0-.36-.07-.62-.22-.78s-.42-.28-.82-.35c-.16-.03-.28-.08-.35-.13-.07-.05-.11-.12-.11-.19,0-.06.04-.11.11-.15.07-.04.18-.06.3-.06.35,0,.67,0,.95.02.28.01.56.02.83.03.27.01.57.02.89.02.43,0,.88,0,1.35,0,.47,0,.9-.01,1.29-.02.36,0,.66,0,.9-.02.24-.02.38-.02.42-.02.06,0,.13.01.2.04s.11.08.12.15c.05.33.11.65.17.97.06.31.09.59.09.82,0,.11-.02.18-.07.22-.05.04-.1.06-.15.06s-.1-.02-.13-.05c-.03-.03-.06-.08-.1-.14-.07-.21-.14-.41-.21-.58-.06-.18-.14-.31-.22-.39-.14-.15-.3-.26-.48-.34-.18-.08-.38-.11-.61-.11h-1.79c-.14,0-.29.05-.44.15s-.23.24-.23.42v3.26c0,.11.03.19.1.26.06.06.14.1.22.1h1.52c.31,0,.52-.07.64-.21s.21-.35.29-.64c.07-.21.18-.32.3-.32.05,0,.1.02.14.07.04.05.06.12.06.22,0,.06,0,.17-.02.32-.01.15-.02.3-.03.46-.01.16-.02.29-.02.38,0,.12,0,.26,0,.42s.01.33.02.49c.01.16.02.28.02.35.01.1,0,.17-.02.23-.03.06-.07.09-.12.09-.17,0-.3-.16-.38-.46-.06-.28-.15-.48-.26-.62s-.27-.21-.49-.21h-1.49c-.17,0-.3.03-.38.08-.08.05-.12.17-.12.34v3.06c0,.37.08.63.24.78.16.14.41.22.74.22h1.26c.3,0,.56-.02.78-.06.22-.04.42-.12.58-.24.18-.13.34-.29.48-.5.14-.2.28-.45.43-.75.04-.06.08-.11.13-.15.04-.04.09-.05.14-.04.06,0,.11.02.14.07.03.05.04.11.04.18,0,.12-.03.29-.08.53-.05.24-.12.48-.2.74s-.15.47-.22.66c-.03.07-.07.14-.11.18s-.1.07-.16.07c-.38,0-.78,0-1.2-.02-.42-.01-.84-.02-1.28-.03s-.87-.02-1.31-.03-.87-.02-1.3-.02c-.22,0-.44,0-.64.02-.2.02-.41.03-.62.05-.21.02-.45.02-.71.02Z" fill="#231f20"/><rect x="56.46" y="4.26" width="36.72" height="10.48" fill="none"/><path d="M57.04,9.48c.01-.18.02-.35.02-.5,0-.15,0-.3,0-.45v-1.68c0-.19,0-.39,0-.6,0-.21,0-.4,0-.58,0-.18,0-.33,0-.46,0-.13,0-.22-.01-.27l-.58-.07-.02-.28,1.22-.34.17.12c0,.22-.01.44-.02.65,0,.22-.01.46-.02.75,0,.28-.01.63-.02,1.05h.02c.12-.16.28-.3.47-.41.19-.11.4-.17.62-.17.26,0,.5.06.72.19.22.13.39.31.53.55.13.24.2.52.2.86,0,.36-.09.69-.26.98s-.41.52-.71.68c-.3.16-.64.25-1.02.25-.23,0-.46-.02-.69-.07-.22-.05-.43-.12-.62-.2ZM58.54,9.3c.28,0,.52-.11.71-.33.19-.22.29-.54.29-.96,0-.4-.09-.7-.28-.89-.19-.19-.42-.29-.7-.29-.15,0-.29.03-.42.09-.14.06-.25.16-.35.28v1.85c.1.07.21.13.33.17.12.04.26.06.42.06Z" fill="#231f20"/><path d="M62.68,9.75c-.35,0-.65-.07-.91-.22-.26-.15-.46-.35-.61-.61-.15-.26-.22-.56-.22-.9,0-.36.08-.68.24-.94.16-.26.38-.47.64-.61.27-.15.56-.22.88-.22s.62.07.87.22c.25.15.44.35.58.61.14.26.2.56.2.9s-.07.63-.22.9c-.15.27-.35.48-.61.64-.26.16-.54.24-.85.24ZM62.76,9.35c.16,0,.3-.05.42-.15.12-.1.21-.24.27-.42.06-.18.1-.39.1-.63,0-.45-.08-.81-.25-1.09-.17-.28-.4-.42-.68-.42-.25,0-.45.11-.61.34-.15.22-.23.52-.23.89,0,.29.04.54.12.77.08.22.2.4.35.53.15.13.32.19.51.19Z" fill="#231f20"/><path d="M66.71,9.75c-.35,0-.65-.07-.91-.22-.26-.15-.46-.35-.61-.61-.15-.26-.22-.56-.22-.9,0-.36.08-.68.24-.94.16-.26.38-.47.64-.61.27-.15.56-.22.88-.22s.62.07.87.22c.25.15.44.35.58.61.14.26.2.56.2.9s-.07.63-.22.9c-.15.27-.35.48-.61.64-.26.16-.54.24-.85.24ZM66.79,9.35c.16,0,.3-.05.42-.15.12-.1.21-.24.27-.42.06-.18.1-.39.1-.63,0-.45-.08-.81-.25-1.09-.17-.28-.4-.42-.68-.42-.25,0-.45.11-.61.34-.15.22-.23.52-.23.89,0,.29.04.54.12.77.08.22.2.4.35.53.15.13.32.19.51.19Z" fill="#231f20"/><path d="M68.95,9.69l-.02-.3.45-.12c.01-.05.02-.14.02-.27,0-.13.01-.28.02-.46,0-.18,0-.37,0-.58v-1.09c0-.19,0-.39,0-.59,0-.2,0-.39,0-.56,0-.18,0-.33-.01-.46,0-.13,0-.23,0-.29l-.58-.08-.02-.28,1.22-.34.17.12c0,.17-.01.33-.02.49,0,.16-.01.33-.02.51,0,.18,0,.37,0,.58v2.56c0,.14,0,.25,0,.36,0,.1.01.19.02.25,0,.07,0,.11,0,.14l.48.12-.02.3h-1.68ZM72.68,9.69h-1.02c-.09-.12-.16-.21-.22-.28-.06-.07-.11-.13-.17-.2l-1.03-1.12h-.21v-.22s.29-.08.29-.08l1.11-1.08-.52-.09.02-.31h1.62l.02.31-.52.09-1.37,1.2.1-.3,1.14,1.23c.08.08.16.17.24.25.08.09.15.15.2.2l.34.07-.02.31Z" fill="#231f20"/><path d="M74.17,9.75c-.2,0-.4-.02-.6-.07-.2-.04-.37-.11-.51-.18l-.04-.86h.42l.16.56c.18.12.39.18.62.18.17,0,.31-.04.41-.12s.15-.18.15-.32-.05-.24-.14-.34c-.1-.1-.29-.2-.57-.32-.38-.15-.64-.3-.79-.46-.15-.16-.23-.35-.23-.59,0-.19.06-.36.18-.51.12-.15.28-.27.49-.35.21-.09.45-.13.73-.13.15,0,.3.01.46.04.16.03.29.07.39.11l.09.84h-.41l-.18-.54c-.05-.03-.11-.06-.19-.07-.07-.02-.15-.03-.23-.03-.18,0-.32.04-.43.12-.11.08-.16.19-.16.31,0,.15.06.26.18.36.12.09.33.2.63.34.34.15.58.3.72.46.14.15.21.34.21.57,0,.3-.13.54-.39.72-.26.19-.59.28-.99.28Z" fill="#231f20"/><path d="M56.65,16.41l-.02-.3.48-.12s0-.07,0-.14c0-.07,0-.16.01-.28,0-.11,0-.25.01-.41,0-.16,0-.33,0-.53l.02-1.8c0-.16,0-.31-.02-.46-.01-.15-.03-.28-.05-.39l-.5-.11v-.29l1.16-.31.16.13-.05.44h.02c.14-.18.3-.33.48-.43.18-.1.37-.16.58-.16.27,0,.52.07.74.21.22.14.4.33.53.58.13.25.2.54.2.86s-.08.66-.23.94-.37.5-.64.67-.59.25-.95.25c-.11,0-.23-.01-.35-.04s-.24-.05-.34-.09v.56c0,.19,0,.35.01.5s.01.25.02.3l.64.11-.02.32h-1.89ZM58.6,14.31c.19,0,.36-.05.51-.14s.26-.23.35-.41c.08-.18.13-.41.13-.68,0-.25-.03-.48-.12-.66-.08-.18-.2-.33-.34-.43-.14-.1-.31-.15-.49-.15-.15,0-.28.03-.41.1-.13.07-.24.17-.35.3v1.85c.09.07.2.12.33.16s.25.06.38.06Z" fill="#231f20"/><path d="M60.94,14.69l-.02-.3.48-.12s.01-.07.02-.13c0-.07.01-.16.02-.27,0-.11,0-.25,0-.41v-.6c0-.17,0-.33-.01-.48-.01-.15-.03-.28-.05-.39l-.5-.11v-.29l1.15-.31.14.12-.03.64h.02c.15-.29.31-.49.46-.59.16-.1.31-.16.46-.16.12,0,.23.03.32.1.09.07.13.17.13.3s-.05.24-.14.31c-.09.07-.21.11-.35.11-.1,0-.2-.02-.29-.06-.09-.04-.18-.1-.27-.19l.16.04c-.09.06-.17.15-.26.25-.08.1-.16.23-.23.38v.69c.01.15.02.3.02.44,0,.14.01.27.02.38,0,.11.01.19.02.24l.68.11-.02.32h-1.94Z" fill="#231f20"/><path d="M65.53,14.75c-.35,0-.65-.07-.91-.22s-.46-.35-.61-.61c-.15-.26-.22-.56-.22-.9,0-.36.08-.68.24-.94.16-.26.38-.47.64-.61.27-.15.56-.22.88-.22s.62.07.87.22c.25.15.44.35.58.61.14.26.2.56.2.9s-.07.63-.22.9c-.15.27-.35.48-.61.64-.26.16-.54.24-.85.24ZM65.61,14.35c.16,0,.3-.05.42-.15s.21-.24.27-.42c.06-.18.1-.39.1-.63,0-.45-.08-.81-.25-1.09-.17-.28-.4-.42-.68-.42-.25,0-.45.11-.61.34-.15.22-.23.52-.23.89,0,.29.04.54.12.77.08.22.2.4.35.53.15.13.32.19.51.19Z" fill="#231f20"/></svg>