<?xml version="1.0" encoding="UTF-8"?><svg id="a" xmlns="http://www.w3.org/2000/svg" viewBox="0 0 119 19"><rect y="3.63" width="60.94" height="11.74" fill="none"/><path d="M5.22,18.33c-.19,0-.36-.02-.48-.06-.15-.05-.21-.13-.21-.24s.06-.23.21-.29c.15-.08.32-.15.57-.19.66-.13,1.15-.32,1.47-.6s.48-.71.48-1.33V5.37c0-.76-.02-1.33-.05-1.71s-.08-.66-.16-.81c-.06-.15-.16-.24-.29-.27-.21-.05-.44-.08-.7-.1h-1.91c-.45,0-.89.1-1.33.29s-.78.48-1,.84c-.06.1-.16.24-.29.42-.13.18-.27.34-.42.47-.16.13-.31.19-.47.19-.08,0-.15-.03-.19-.1s-.06-.16-.06-.26c0-.19.05-.37.16-.57.27-.55.47-1.03.6-1.45.11-.42.21-.91.29-1.47.03-.27.1-.45.21-.52.1-.06.21-.1.31-.1.08,0,.19.11.36.32.15.21.26.39.36.53.15.16.4.27.78.36.37.08.73.13,1.07.13l9.34-.03c.53,0,.99-.03,1.33-.1.36-.06.65-.16.87-.26.24-.11.44-.26.57-.4.15-.15.32-.23.55-.23.06,0,.11.06.16.16.03.11.05.24.05.37,0,.06,0,.18-.03.31-.02.13-.03.24-.05.34-.06.32-.13.58-.19.78s-.1.37-.13.53c-.03.16-.03.37-.03.63v.36c0,.21-.03.4-.1.6s-.18.29-.31.29-.24-.1-.34-.27-.18-.44-.26-.79c-.1-.45-.34-.79-.68-1.03s-.94-.36-1.75-.36h-2.17c-.34,0-.61.06-.81.16-.19.11-.31.37-.37.78s-.1,1.05-.1,1.96v10.25c0,.58.16,1.02.5,1.29s.82.48,1.49.61c.24.05.42.11.55.18s.19.18.19.31c0,.1-.06.18-.18.23-.11.05-.29.08-.48.08-.44,0-.82,0-1.2-.03s-.71-.05-1.07-.06c-.34-.02-.71-.03-1.08-.03-.42,0-.81,0-1.16.03s-.73.03-1.12.06c-.37.03-.79.03-1.24.03l-.05.03Z" fill="#231f20"/><path d="M17.01,18.36c-.21,0-.37-.03-.52-.1s-.21-.15-.21-.27c0-.15.06-.26.21-.34.13-.08.32-.18.57-.26.47-.15.89-.34,1.26-.61s.7-.7.94-1.26c.47-1.05.89-2.05,1.29-3.01.4-.95.78-1.91,1.13-2.83s.73-1.89,1.12-2.88c.37-.99.76-2.05,1.16-3.17.16-.4.27-.73.34-1s.11-.5.13-.71c.23-.05.44-.11.61-.16.19-.06.4-.15.61-.27.21-.1.37-.26.48-.45.11-.19.19-.34.27-.42.03,0,.06-.03.11-.03s.08.02.11.1c.05.08.1.18.11.29.03.1.05.21.1.34.4,1.26.81,2.54,1.23,3.85s.84,2.57,1.26,3.82.81,2.39,1.16,3.46c.36,1.07.68,1.99.94,2.78.19.57.42,1,.68,1.31.26.31.53.53.82.68s.61.26.95.32c.26.05.45.13.58.23s.19.23.19.36c0,.1-.06.18-.19.23-.13.05-.29.06-.48.06-.27,0-.65,0-1.08-.03-.45-.03-.92-.05-1.39-.06-.48-.02-.92-.03-1.33-.03h-1.08c-.4,0-.78,0-1.13.03s-.66.03-.92.03c-.21,0-.37-.03-.5-.1s-.19-.15-.19-.24c0-.13.08-.24.23-.34.16-.08.34-.15.55-.18.58-.1,1.02-.26,1.28-.47s.37-.48.32-.82c-.02-.29-.08-.66-.18-1.1-.1-.44-.23-.91-.36-1.39-.15-.48-.27-.94-.39-1.36-.03-.15-.1-.23-.18-.26-.08-.03-.23-.05-.44-.05h-4.79c-.08,0-.16.03-.23.1s-.15.18-.21.36c-.05.21-.13.47-.24.79s-.23.66-.32,1-.19.68-.27.99-.13.52-.15.66c-.05.44.05.78.32,1.02.27.26.66.45,1.2.58.52.15.78.31.78.52,0,.11-.06.19-.19.24s-.29.06-.5.06c-.32,0-.71,0-1.13-.03s-.89-.03-1.37-.03c-.55,0-1.08.03-1.6.08s-1,.08-1.47.08l-.02-.08ZM23.14,10.89h3.78c.24,0,.36-.05.36-.13v-.13s-.02-.08-.03-.16l-1.91-6.13c-.08-.27-.16-.42-.21-.42-.03,0-.1.13-.18.39l-2.25,6.16c-.03.1-.05.18-.05.21,0,.08.05.15.15.16.1.03.23.03.37.03l-.03.02Z" fill="#231f20"/><path d="M36.8,18.36c-.21,0-.37-.03-.48-.08s-.18-.13-.18-.23c0-.23.24-.39.74-.48.63-.13,1.12-.34,1.42-.58.31-.24.47-.68.47-1.28V4.02c0-.58-.11-1.02-.36-1.29s-.68-.45-1.33-.55c-.26-.03-.45-.1-.57-.19s-.18-.19-.18-.32c0-.1.06-.18.18-.24s.29-.1.48-.1c.5,0,.89,0,1.2.03.29.02.57.03.84.03h.94c.36,0,.68,0,.94-.03.27-.03.57-.05.91-.08s.78-.03,1.31-.03c2.04,0,3.56.29,4.57.87s1.52,1.57,1.52,2.99c0,.57-.11,1.08-.32,1.52-.21.45-.45.79-.71,1.03-.27.26-.53.47-.79.61-.24.16-.58.31-1,.44-.06.02-.1.06-.1.11s.03.11.1.15c.42.11.84.27,1.28.45s.86.42,1.26.73.71.7.94,1.2.36,1.12.36,1.88c0,.95-.15,1.7-.45,2.26-.31.57-.66.99-1.07,1.28-.42.29-.81.53-1.16.73-.55.27-1.18.48-1.89.63s-1.57.23-2.55.23c-.34,0-.76-.02-1.26-.05s-1.02-.05-1.58-.05c-.42,0-.79,0-1.15.03-.36.02-.71.03-1.07.06-.36.03-.78.03-1.24.03v-.02ZM42.62,8.66c.45,0,.91-.05,1.39-.16.47-.1.94-.31,1.41-.6.18-.1.39-.36.65-.74s.39-.94.39-1.67c0-.58-.1-1.13-.27-1.65-.18-.5-.52-.92-1-1.24-.48-.32-1.2-.48-2.1-.48-.61,0-1.03.1-1.26.29s-.32.47-.32.86v4.43c0,.42.13.68.42.79.27.11.52.16.73.16l-.02.02ZM43.34,17.15c.7,0,1.33-.16,1.91-.48s1.05-.78,1.39-1.36c.36-.58.53-1.21.53-1.92,0-.66-.1-1.2-.29-1.62s-.42-.76-.68-1.02-.48-.45-.7-.57c-.21-.13-.53-.27-.95-.42-.44-.13-.99-.21-1.68-.21-.45,0-.79.1-1.02.29s-.36.4-.36.61v4.95c0,.66.16,1.12.48,1.37s.79.39,1.37.39l-.02-.02Z" fill="#231f20"/><path d="M53.74,18.36c-.19,0-.34-.03-.47-.1s-.18-.15-.18-.23c0-.13.06-.24.21-.32s.24-.13.34-.15c.66-.16,1.15-.36,1.45-.6.32-.24.48-.65.48-1.21V3.83c0-.42-.05-.73-.13-.92-.08-.19-.24-.36-.48-.45s-.57-.19-1-.29c-.5-.1-.74-.27-.74-.52,0-.11.06-.21.19-.26s.29-.08.48-.08c.44,0,.82,0,1.16.03.34.02.68.03.99.05.31.02.66.03,1.03.03h1.13c.36,0,.73-.02,1.12-.03.37-.02.79-.03,1.21-.03.21,0,.37.02.48.06.11.05.16.13.16.24,0,.15-.06.24-.18.32s-.31.15-.57.19c-.66.16-1.18.32-1.55.5s-.57.52-.57,1.02v11.98c0,.53.11.92.36,1.15.23.23.71.36,1.44.36h3.01c.45,0,.84-.06,1.18-.21.34-.13.6-.29.79-.47.32-.29.58-.57.76-.84s.37-.63.58-1.07c.08-.19.18-.37.29-.55s.21-.26.34-.26.21.06.26.16c.05.11.08.23.08.32,0,.03,0,.08-.03.13s-.03.1-.03.16c-.11.47-.23.87-.34,1.24s-.18.71-.24,1.03c-.06.32-.11.68-.15,1.07-.02.13-.05.23-.1.32s-.15.15-.29.15c-.68,0-1.39,0-2.15-.03-.76-.02-1.52-.03-2.3-.03s-1.54-.02-2.3-.03c-.74-.02-1.47-.03-2.17-.03-.42,0-.87,0-1.39.03s-.97.03-1.39.06c-.42.03-.68.03-.79.03l-.02-.02Z" fill="#231f20"/><path d="M70.29,18.36c-.21,0-.37-.03-.48-.08s-.18-.13-.18-.23c0-.23.24-.39.74-.48.63-.13,1.1-.34,1.39-.58s.42-.68.42-1.28V4.02c0-.58-.11-1-.36-1.26s-.68-.45-1.33-.57c-.26-.05-.45-.13-.57-.21s-.18-.19-.18-.31c0-.1.06-.18.18-.24s.29-.1.48-.1c.57,0,1.08,0,1.54.03.45.02.91.03,1.34.05s.92.03,1.44.03h2.18c.76,0,1.45-.02,2.09-.03.58,0,1.07,0,1.45-.03s.61-.03.68-.03c.1,0,.21.02.32.06s.18.13.19.24c.08.53.18,1.05.27,1.57.1.5.15.95.15,1.33,0,.18-.03.29-.11.36s-.16.1-.24.1-.16-.03-.21-.08c-.05-.05-.1-.13-.16-.23-.11-.34-.23-.66-.34-.94-.1-.29-.23-.5-.36-.63-.23-.24-.48-.42-.78-.55-.29-.13-.61-.18-.99-.18h-2.89c-.23,0-.47.08-.71.24s-.37.39-.37.68v5.27c0,.18.05.31.16.42.1.1.23.16.36.16h2.46c.5,0,.84-.11,1.03-.34s.34-.57.47-1.03c.11-.34.29-.52.48-.52.08,0,.16.03.23.11.06.08.1.19.1.36,0,.1,0,.27-.03.52-.02.24-.03.48-.05.74s-.03.47-.03.61v.68c0,.26.02.53.03.79.02.26.03.45.03.57.02.16,0,.27-.03.37-.05.1-.11.15-.19.15-.27,0-.48-.26-.61-.74-.1-.45-.24-.78-.42-1s-.44-.34-.79-.34h-2.41c-.27,0-.48.05-.61.13s-.19.27-.19.55v4.95c0,.6.13,1.02.39,1.26.26.23.66.36,1.2.36h2.04c.48,0,.91-.03,1.26-.1.36-.06.68-.19.94-.39.29-.21.55-.47.78-.81.23-.32.45-.73.7-1.21.06-.1.13-.18.21-.24.06-.06.15-.08.23-.06.1,0,.18.03.23.11.05.08.06.18.06.29,0,.19-.05.47-.13.86-.08.39-.19.78-.32,1.2s-.24.76-.36,1.07c-.05.11-.11.23-.18.29s-.16.11-.26.11c-.61,0-1.26,0-1.94-.03-.68-.02-1.36-.03-2.07-.05s-1.41-.03-2.12-.05-1.41-.03-2.1-.03c-.36,0-.71,0-1.03.03s-.66.05-1,.08-.73.03-1.15.03l.05-.08Z" fill="#231f20"/><rect x="56.46" y="4.26" width="36.72" height="10.48" fill="none"/><path d="M92.21,8.61c.01-.25.03-.49.03-.7V2.6c0-.18,0-.31-.01-.38l-.82-.1-.03-.39,1.72-.48.24.17c0,.31-.01.62-.03.92,0,.31-.01.65-.03,1.06,0,.39-.01.89-.03,1.48h.03c.17-.23.39-.42.66-.58.27-.15.56-.24.87-.24.37,0,.7.08,1.01.27s.55.44.75.77c.18.34.28.73.28,1.21,0,.51-.13.97-.37,1.38s-.58.73-1,.96-.9.35-1.44.35c-.32,0-.65-.03-.97-.1-.31-.07-.61-.17-.87-.28ZM94.32,8.35c.39,0,.73-.15,1-.46s.41-.76.41-1.35-.13-.99-.39-1.25-.59-.41-.99-.41c-.21,0-.41.04-.59.13-.2.08-.35.23-.49.39v2.6c.14.1.3.18.46.24.17.06.37.08.59.08v.03Z" fill="#231f20"/><path d="M100.15,8.99c-.49,0-.92-.1-1.28-.31-.37-.21-.65-.49-.86-.86-.21-.37-.31-.79-.31-1.27,0-.51.11-.96.34-1.32.23-.37.54-.66.9-.86.38-.21.79-.31,1.24-.31s.87.1,1.22.31c.35.21.62.49.82.86.2.37.28.79.28,1.27s-.1.89-.31,1.27c-.21.38-.49.68-.86.9-.37.23-.76.34-1.2.34h.01ZM100.26,8.42c.23,0,.42-.07.59-.21.17-.14.3-.34.38-.59s.14-.55.14-.89c0-.63-.11-1.14-.35-1.53s-.56-.59-.96-.59c-.35,0-.63.15-.86.48-.21.31-.32.73-.32,1.25,0,.41.06.76.17,1.08.11.31.28.56.49.75.21.18.45.27.72.27h0Z" fill="#231f20"/><path d="M105.82,8.99c-.49,0-.92-.1-1.28-.31-.37-.21-.65-.49-.86-.86-.21-.37-.31-.79-.31-1.27,0-.51.11-.96.34-1.32.23-.37.54-.66.9-.86.38-.21.79-.31,1.24-.31s.87.1,1.22.31c.35.21.62.49.82.86.2.37.28.79.28,1.27s-.1.89-.31,1.27c-.21.38-.49.68-.86.9-.37.23-.76.34-1.2.34h.01ZM105.94,8.42c.23,0,.42-.07.59-.21.17-.14.3-.34.38-.59s.14-.55.14-.89c0-.63-.11-1.14-.35-1.53s-.56-.59-.96-.59c-.35,0-.63.15-.86.48-.21.31-.32.73-.32,1.25,0,.41.06.76.17,1.08.11.31.28.56.49.75s.45.27.72.27h0Z" fill="#231f20"/><path d="M108.98,8.9l-.03-.42.63-.17c.01-.07.03-.2.03-.38s.01-.39.03-.65v-3.97c0-.25,0-.46-.01-.65v-.41l-.82-.11-.03-.39,1.72-.48.24.17c0,.24-.01.46-.03.69,0,.23-.01.46-.03.72v4.93c0,.14.01.27.03.35v.2l.68.17-.03.42h-2.38ZM114.23,8.9h-1.44c-.13-.17-.23-.3-.31-.39s-.15-.18-.24-.28l-1.45-1.58h-.3v-.31l.41-.11,1.56-1.52-.73-.13.03-.44h2.28l.03.44-.73.13-1.93,1.69.14-.42,1.61,1.73c.11.11.23.24.34.35.11.13.21.21.28.28l.48.1-.03.44v.03Z" fill="#231f20"/><path d="M116.33,8.99c-.28,0-.56-.03-.84-.1-.28-.06-.52-.15-.72-.25l-.06-1.21h.59l.23.79c.25.17.55.25.87.25.24,0,.44-.06.58-.17s.21-.25.21-.45-.07-.34-.2-.48c-.14-.14-.41-.28-.8-.45-.54-.21-.9-.42-1.11-.65s-.32-.49-.32-.83c0-.27.08-.51.25-.72s.39-.38.69-.49c.3-.13.63-.18,1.03-.18.21,0,.42.01.65.06.23.04.41.1.55.15l.13,1.18h-.58l-.25-.76c-.07-.04-.15-.08-.27-.1-.1-.03-.21-.04-.32-.04-.25,0-.45.06-.61.17s-.23.27-.23.44c0,.21.08.37.25.51.17.13.46.28.89.48.48.21.82.42,1.01.65.2.21.3.48.3.8,0,.42-.18.76-.55,1.01-.37.27-.83.39-1.39.39h.03Z" fill="#231f20"/><path d="M91.66,18.37l-.03-.42.68-.17v-.2c0-.1,0-.23.01-.39,0-.15,0-.35.01-.58v-.75l.03-2.53c0-.23,0-.44-.03-.65-.01-.21-.04-.39-.07-.55l-.7-.15v-.41l1.63-.44.23.18-.07.62h.03c.2-.25.42-.46.68-.61s.52-.23.82-.23c.38,0,.73.1,1.04.3s.56.46.75.82c.18.35.28.76.28,1.21s-.11.93-.32,1.32-.52.7-.9.94-.83.35-1.34.35c-.15,0-.32-.01-.49-.06s-.34-.07-.48-.13v.79c0,.27,0,.49.01.7s.01.35.03.42l.9.15-.03.45h-2.66ZM94.41,15.41c.27,0,.51-.07.72-.2s.37-.32.49-.58c.11-.25.18-.58.18-.96,0-.35-.04-.68-.17-.93-.11-.25-.28-.46-.48-.61s-.44-.21-.69-.21c-.21,0-.39.04-.58.14-.18.1-.34.24-.49.42v2.6c.13.1.28.17.46.23s.35.08.54.08h.01Z" fill="#231f20"/><path d="M97.7,15.94l-.03-.42.68-.17s.01-.1.03-.18c0-.1.01-.23.03-.38v-1.42c0-.24,0-.46-.01-.68s-.04-.39-.07-.55l-.7-.15v-.41l1.62-.44.2.17-.04.9h.03c.21-.41.44-.69.65-.83.23-.14.44-.23.65-.23.17,0,.32.04.45.14.13.1.18.24.18.42s-.07.34-.2.44c-.13.1-.3.15-.49.15-.14,0-.28-.03-.41-.08s-.25-.14-.38-.27l.23.06c-.13.08-.24.21-.37.35-.11.14-.23.32-.32.54v.97c.01.21.03.42.03.62s.01.38.03.54c0,.15.01.27.03.34l.96.15-.03.45h-2.73v-.03Z" fill="#231f20"/><path d="M104.16,16.03c-.49,0-.92-.1-1.28-.31s-.65-.49-.86-.86c-.21-.37-.31-.79-.31-1.27,0-.51.11-.96.34-1.32.23-.37.54-.66.9-.86.38-.21.79-.31,1.24-.31s.87.1,1.22.31c.35.21.62.49.82.86.2.37.28.79.28,1.27s-.1.89-.31,1.27c-.21.38-.49.68-.86.9-.37.23-.76.34-1.2.34h.01ZM104.28,15.46c.23,0,.42-.07.59-.21s.3-.34.38-.59.14-.55.14-.89c0-.63-.11-1.14-.35-1.53s-.56-.59-.96-.59c-.35,0-.63.15-.86.48-.21.31-.32.73-.32,1.25,0,.41.06.76.17,1.08.11.31.28.56.49.75s.45.27.72.27h0Z" fill="#231f20"/></svg>