<?xml version="1.0" encoding="UTF-8"?><svg id="a" xmlns="http://www.w3.org/2000/svg" xmlns:xlink="http://www.w3.org/1999/xlink" viewBox="0 0 198.89 198.89"><defs><clipPath id="b"><polygon points="-310.35 -13.3 -310.35 14.7 183.97 14.7 211.51 -12.84 211.51 -13.3 -310.35 -13.3" style="fill:#fff; stroke:#231f20; stroke-miterlimit:10; stroke-width:.5px;"/></clipPath><clipPath id="c"><polygon points="211.51 -12.84 184.15 14.52 184.15 669.71 211.51 697.08 212.15 697.08 212.15 -12.84 211.51 -12.84" style="fill:#fff; stroke:#231f20; stroke-miterlimit:10; stroke-width:.5px;"/></clipPath></defs><polygon points="-310.35 -13.3 -310.35 14.7 183.97 14.7 211.51 -12.84 211.51 -13.3 -310.35 -13.3" style="fill:#fff;"/><g style="clip-path:url(#b);"><path d="M199.26-33.78c-.68-1.52-2.31-2.75-5.58.59-2.74,2.79-3.58,5.78-6.08,9.32,3.67-1.09,5.09-1.75,8.54-3.82,3.77-2.26,3.8-4.57,3.12-6.08M205.3-22.1c0,2.07-1.19,4.39-6.52,3.74-4.89-.59-8.21-1.99-12.85-3.74,4.56-1.64,8.4-3.04,12.85-3.75,5.32-.84,6.52,1.68,6.52,3.75M205.73-4.01c-.93,2.1-3.44,3.36-9.75-2.28-5.78-5.17-6.54-8.34-11.48-14.46,6.38,2.59,9.03,3.4,14.85,6.83,6.96,4.11,7.31,7.8,6.38,9.91M198.04,14.75c-1.89,1.43-5.02.77-8.91-9.82-3.57-9.71-3.63-14.92-5.92-24.96,5.33,7.55,8.4,11.8,12.78,19.77,5.24,9.54,3.94,13.58,2.05,15.01M210.85-9.6c-.71,27.42-19.68,39.54-28.92,43.2-9.25-3.66-28.22-15.78-28.92-43.2-.44-17.27,3.56-25.59,8.76-32.14,2.81-3.54,5.88-5.58,11.13-5.58,5.57,0,7.77,4.86,7.74,9.32-.02,3.75-1.76,6.37-4.23,6.37-1.82,0-3.3-1.01-4.08-2.77-.64-1.44-.67-3.18-.09-4.34.29-.56.7-.95,1.18-1.13.32-.19.67-.31,1.05-.31,1.38,0,2.49,1.4,2.49,3.12,0,1.54-.9,2.75-2.07,3.01.39.24.86.42,1.51.42,1.79,0,2.9-2.05,2.92-4.16.03-3.45-2.04-6.51-6.31-6.6-3.44-.13-6.1,1.32-8.69,4.58-4.9,6.17-8.85,14.72-8.69,30.05.25,24.64,16.51,37.72,26.29,42.3,9.78-4.59,26.04-17.67,26.29-42.3.15-15.33-3.79-23.88-8.69-30.05-2.59-3.26-5.26-4.71-8.69-4.58-4.27.09-6.33,3.15-6.31,6.6.01,2.11,1.13,4.16,2.92,4.16.64,0,1.11-.19,1.5-.42-1.17-.26-2.07-1.48-2.07-3.01,0-1.72,1.12-3.12,2.49-3.12.38,0,.73.13,1.05.31.48.18.9.57,1.18,1.13.59,1.16.55,2.9-.08,4.34-.77,1.76-2.26,2.77-4.08,2.77-2.47,0-4.21-2.62-4.23-6.37-.03-4.46,2.17-9.32,7.74-9.32,5.25,0,8.32,2.04,11.13,5.58,5.21,6.55,9.21,14.88,8.77,32.14M181.93,27.93c-2.57-.03-5.67-3.17-4.62-16.86.87-11.43,2.6-19.05,4.62-30.72,2.02,11.67,3.75,19.29,4.62,30.72,1.05,13.69-2.06,16.83-4.62,16.86M201.51,25.7c1.34,0,2.43,1.36,2.43,3.05s-1.09,3.04-2.43,3.04-2.44-1.36-2.44-3.04,1.09-3.05,2.44-3.05M203.95,21.67c5.07-5.7,7.56-17.91,7.56-17.91v29.84l-7.56-11.93ZM206.53-41.14l4.98-6.19v16.52s-1.48-6.85-4.98-10.33M170.17-33.19c2.74,2.79,3.58,5.78,6.09,9.32-3.67-1.09-5.09-1.75-8.54-3.82-3.77-2.26-3.8-4.57-3.12-6.08.68-1.52,2.31-2.75,5.58.59M165.08-25.84c4.45.71,8.28,2.11,12.85,3.75-4.64,1.75-7.95,3.16-12.85,3.74-5.33.64-6.52-1.68-6.52-3.74,0-2.06,1.2-4.59,6.52-3.75M158.12-4.01c-.93-2.11-.58-5.8,6.38-9.91,5.82-3.43,8.47-4.24,14.85-6.83-4.95,6.12-5.7,9.3-11.49,14.46-6.3,5.63-8.82,4.38-9.75,2.28M165.82,14.75c-1.89-1.43-3.2-5.46,2.04-15.01,4.38-7.97,7.45-12.22,12.78-19.77-2.29,10.04-2.35,15.25-5.92,24.96-3.89,10.59-7.01,11.25-8.91,9.82M181.93-29.52c3.31,0,6,1.43,6,3.2s-2.68,6.01-6,6.01-6-4.25-6-6.01,2.68-3.2,6-3.2M162.34,25.7c1.34,0,2.44,1.36,2.44,3.05s-1.09,3.04-2.44,3.04-2.44-1.36-2.44-3.04,1.09-3.05,2.44-3.05M159.91,21.67l-7.56,11.93V3.76s2.49,12.22,7.56,17.91M152.35-30.8v-16.52l4.98,6.19c-3.5,3.48-4.98,10.33-4.98,10.33" style="fill:#231f20; stroke:#231f20; stroke-miterlimit:10; stroke-width:.5px;"/><path d="M140.1-33.78c-.68-1.52-2.31-2.75-5.58.59-2.74,2.79-3.58,5.78-6.08,9.32,3.67-1.09,5.09-1.75,8.54-3.82,3.77-2.26,3.8-4.57,3.12-6.08M146.14-22.1c0,2.07-1.19,4.39-6.52,3.74-4.89-.59-8.21-1.99-12.85-3.74,4.56-1.64,8.4-3.04,12.85-3.75,5.32-.84,6.52,1.68,6.52,3.75M146.57-4.01c-.93,2.1-3.44,3.36-9.75-2.28-5.78-5.17-6.54-8.34-11.48-14.46,6.38,2.59,9.03,3.4,14.85,6.83,6.96,4.11,7.31,7.8,6.38,9.91M138.88,14.75c-1.89,1.43-5.02.77-8.91-9.82-3.57-9.71-3.63-14.92-5.92-24.96,5.33,7.55,8.4,11.8,12.78,19.77,5.24,9.54,3.94,13.58,2.05,15.01M151.69-9.6c-.71,27.42-19.68,39.54-28.92,43.2-9.25-3.66-28.22-15.78-28.92-43.2-.44-17.27,3.56-25.59,8.76-32.14,2.81-3.54,5.88-5.58,11.13-5.58,5.57,0,7.77,4.86,7.74,9.32-.02,3.75-1.76,6.37-4.23,6.37-1.82,0-3.3-1.01-4.08-2.77-.64-1.44-.67-3.18-.09-4.34.29-.56.7-.95,1.18-1.13.32-.19.67-.31,1.05-.31,1.38,0,2.49,1.4,2.49,3.12,0,1.54-.9,2.75-2.07,3.01.39.24.86.42,1.51.42,1.79,0,2.9-2.05,2.92-4.16.03-3.45-2.04-6.51-6.31-6.6-3.44-.13-6.1,1.32-8.69,4.58-4.9,6.17-8.85,14.72-8.69,30.05.25,24.64,16.51,37.72,26.29,42.3,9.78-4.59,26.04-17.67,26.29-42.3.15-15.33-3.79-23.88-8.69-30.05-2.59-3.26-5.26-4.71-8.69-4.58-4.27.09-6.33,3.15-6.31,6.6.01,2.11,1.13,4.16,2.92,4.16.64,0,1.11-.19,1.5-.42-1.17-.26-2.07-1.48-2.07-3.01,0-1.72,1.12-3.12,2.49-3.12.38,0,.73.13,1.05.31.48.18.9.57,1.18,1.13.59,1.16.55,2.9-.08,4.34-.77,1.76-2.26,2.77-4.08,2.77-2.47,0-4.21-2.62-4.23-6.37-.03-4.46,2.17-9.32,7.74-9.32,5.25,0,8.32,2.04,11.13,5.58,5.21,6.55,9.21,14.88,8.77,32.14M122.77,27.93c-2.57-.03-5.67-3.17-4.62-16.86.87-11.43,2.6-19.05,4.62-30.72,2.02,11.67,3.75,19.29,4.62,30.72,1.05,13.69-2.06,16.83-4.62,16.86M142.35,25.7c1.34,0,2.43,1.36,2.43,3.05s-1.09,3.04-2.43,3.04-2.44-1.36-2.44-3.04,1.09-3.05,2.44-3.05M144.79,21.67c5.07-5.7,7.56-17.91,7.56-17.91v29.84l-7.56-11.93ZM147.37-41.14l4.98-6.19v16.52s-1.48-6.85-4.98-10.33M111.01-33.19c2.74,2.79,3.58,5.78,6.09,9.32-3.67-1.09-5.09-1.75-8.54-3.82-3.77-2.26-3.8-4.57-3.12-6.08.68-1.52,2.31-2.75,5.58.59M105.92-25.84c4.45.71,8.28,2.11,12.85,3.75-4.64,1.75-7.95,3.16-12.85,3.74-5.33.64-6.52-1.68-6.52-3.74,0-2.06,1.2-4.59,6.52-3.75M98.97-4.01c-.93-2.11-.58-5.8,6.38-9.91,5.82-3.43,8.47-4.24,14.85-6.83-4.95,6.12-5.7,9.3-11.49,14.46-6.3,5.63-8.82,4.38-9.75,2.28M106.66,14.75c-1.89-1.43-3.2-5.46,2.04-15.01,4.38-7.97,7.45-12.22,12.78-19.77-2.29,10.04-2.35,15.25-5.92,24.96-3.89,10.59-7.01,11.25-8.91,9.82M122.77-29.52c3.31,0,6,1.43,6,3.2s-2.68,6.01-6,6.01-6-4.25-6-6.01,2.68-3.2,6-3.2M103.18,25.7c1.34,0,2.44,1.36,2.44,3.05s-1.09,3.04-2.44,3.04-2.44-1.36-2.44-3.04,1.09-3.05,2.44-3.05M100.75,21.67l-7.56,11.93V3.76s2.49,12.22,7.56,17.91M93.19-30.8v-16.52l4.98,6.19c-3.5,3.48-4.98,10.33-4.98,10.33" style="fill:#231f20; stroke:#231f20; stroke-miterlimit:10; stroke-width:.5px;"/><path d="M80.94-33.78c-.68-1.52-2.31-2.75-5.58.59-2.74,2.79-3.58,5.78-6.08,9.32,3.67-1.09,5.09-1.75,8.54-3.82,3.77-2.26,3.8-4.57,3.12-6.08M86.98-22.1c0,2.07-1.19,4.39-6.52,3.74-4.89-.59-8.21-1.99-12.85-3.74,4.56-1.64,8.4-3.04,12.85-3.75,5.32-.84,6.52,1.68,6.52,3.75M87.41-4.01c-.93,2.1-3.44,3.36-9.75-2.28-5.78-5.17-6.54-8.34-11.48-14.46,6.38,2.59,9.03,3.4,14.85,6.83,6.96,4.11,7.31,7.8,6.38,9.91M79.72,14.75c-1.89,1.43-5.02.77-8.91-9.82-3.57-9.71-3.63-14.92-5.92-24.96,5.33,7.55,8.4,11.8,12.78,19.77,5.24,9.54,3.94,13.58,2.05,15.01M92.53-9.6c-.71,27.42-19.68,39.54-28.92,43.2-9.25-3.66-28.22-15.78-28.92-43.2-.44-17.27,3.56-25.59,8.76-32.14,2.81-3.54,5.88-5.58,11.13-5.58,5.57,0,7.77,4.86,7.74,9.32-.02,3.75-1.76,6.37-4.23,6.37-1.82,0-3.3-1.01-4.08-2.77-.64-1.44-.67-3.18-.09-4.34.29-.56.7-.95,1.18-1.13.32-.19.67-.31,1.05-.31,1.38,0,2.49,1.4,2.49,3.12,0,1.54-.9,2.75-2.07,3.01.39.24.86.42,1.51.42,1.79,0,2.9-2.05,2.92-4.16.02-3.45-2.04-6.51-6.31-6.6-3.44-.13-6.1,1.32-8.69,4.58-4.9,6.17-8.85,14.72-8.69,30.05.25,24.64,16.51,37.72,26.29,42.3,9.78-4.59,26.04-17.67,26.29-42.3.15-15.33-3.79-23.88-8.69-30.05-2.59-3.26-5.26-4.71-8.69-4.58-4.27.09-6.33,3.15-6.31,6.6.01,2.11,1.13,4.16,2.92,4.16.64,0,1.11-.19,1.51-.42-1.17-.26-2.07-1.48-2.07-3.01,0-1.72,1.12-3.12,2.49-3.12.38,0,.73.13,1.05.31.48.18.9.57,1.18,1.13.59,1.16.55,2.9-.08,4.34-.77,1.76-2.26,2.77-4.08,2.77-2.47,0-4.21-2.62-4.23-6.37-.03-4.46,2.17-9.32,7.74-9.32,5.25,0,8.32,2.04,11.13,5.58,5.21,6.55,9.21,14.88,8.77,32.14M63.61,27.93c-2.57-.03-5.67-3.17-4.62-16.86.87-11.43,2.6-19.05,4.62-30.72,2.02,11.67,3.75,19.29,4.62,30.72,1.05,13.69-2.06,16.83-4.62,16.86M83.19,25.7c1.34,0,2.43,1.36,2.43,3.05s-1.09,3.04-2.43,3.04-2.44-1.36-2.44-3.04,1.09-3.05,2.44-3.05M85.63,21.67c5.07-5.7,7.56-17.91,7.56-17.91v29.84l-7.56-11.93ZM88.21-41.14l4.98-6.19v16.52s-1.48-6.85-4.98-10.33M51.85-33.19c2.74,2.79,3.58,5.78,6.09,9.32-3.67-1.09-5.09-1.75-8.54-3.82-3.77-2.26-3.8-4.57-3.12-6.08.68-1.52,2.31-2.75,5.58.59M46.76-25.84c4.45.71,8.28,2.11,12.85,3.75-4.64,1.75-7.95,3.16-12.85,3.74-5.33.64-6.52-1.68-6.52-3.74,0-2.06,1.2-4.59,6.52-3.75M39.81-4.01c-.93-2.11-.58-5.8,6.38-9.91,5.82-3.43,8.47-4.24,14.85-6.83-4.95,6.12-5.7,9.3-11.49,14.46-6.3,5.63-8.82,4.38-9.75,2.28M47.5,14.75c-1.89-1.43-3.2-5.46,2.04-15.01,4.38-7.97,7.45-12.22,12.78-19.77-2.29,10.04-2.35,15.25-5.92,24.96-3.89,10.59-7.01,11.25-8.91,9.82M63.61-29.52c3.31,0,6,1.43,6,3.2s-2.68,6.01-6,6.01-6-4.25-6-6.01,2.68-3.2,6-3.2M44.03,25.7c1.34,0,2.44,1.36,2.44,3.05s-1.09,3.04-2.44,3.04-2.44-1.36-2.44-3.04,1.09-3.05,2.44-3.05M41.59,21.67l-7.56,11.93V3.76s2.49,12.22,7.56,17.91M34.03-30.8v-16.52l4.98,6.19c-3.5,3.48-4.98,10.33-4.98,10.33" style="fill:#231f20; stroke:#231f20; stroke-miterlimit:10; stroke-width:.5px;"/><path d="M21.78-33.78c-.68-1.52-2.31-2.75-5.58.59-2.74,2.79-3.58,5.78-6.08,9.32,3.67-1.09,5.09-1.75,8.54-3.82,3.77-2.26,3.8-4.57,3.12-6.08M27.82-22.1c0,2.07-1.19,4.39-6.52,3.74-4.89-.59-8.21-1.99-12.85-3.74,4.56-1.64,8.4-3.04,12.85-3.75,5.32-.84,6.52,1.68,6.52,3.75M28.25-4.01c-.93,2.1-3.44,3.36-9.75-2.28-5.78-5.17-6.54-8.34-11.48-14.46,6.38,2.59,9.03,3.4,14.85,6.83,6.96,4.11,7.31,7.8,6.38,9.91M20.56,14.75c-1.89,1.43-5.02.77-8.91-9.82-3.57-9.71-3.63-14.92-5.92-24.96C11.07-12.48,14.13-8.23,18.51-.26c5.24,9.54,3.94,13.58,2.05,15.01M33.37-9.6c-.71,27.42-19.68,39.54-28.92,43.2-9.25-3.66-28.22-15.78-28.92-43.2-.44-17.27,3.56-25.59,8.76-32.14,2.81-3.54,5.88-5.58,11.13-5.58,5.57,0,7.77,4.86,7.74,9.32-.02,3.75-1.76,6.37-4.23,6.37-1.82,0-3.3-1.01-4.08-2.77-.64-1.44-.67-3.18-.09-4.34.29-.56.7-.95,1.18-1.13.32-.19.67-.31,1.05-.31,1.38,0,2.49,1.4,2.49,3.12,0,1.54-.9,2.75-2.07,3.01.39.24.86.42,1.51.42,1.79,0,2.9-2.05,2.92-4.16.02-3.45-2.04-6.51-6.31-6.6-3.44-.13-6.1,1.32-8.69,4.58-4.9,6.17-8.85,14.72-8.69,30.05.25,24.64,16.51,37.72,26.29,42.3C14.23,27.94,30.49,14.86,30.74-9.78c.15-15.33-3.79-23.88-8.69-30.05-2.59-3.26-5.26-4.71-8.69-4.58-4.27.09-6.33,3.15-6.31,6.6.01,2.11,1.13,4.16,2.92,4.16.64,0,1.11-.19,1.51-.42-1.17-.26-2.07-1.48-2.07-3.01,0-1.72,1.12-3.12,2.49-3.12.38,0,.73.13,1.05.31.48.18.9.57,1.18,1.13.59,1.16.55,2.9-.08,4.34-.77,1.76-2.26,2.77-4.08,2.77-2.47,0-4.21-2.62-4.23-6.37-.03-4.46,2.17-9.32,7.74-9.32,5.25,0,8.32,2.04,11.13,5.58,5.21,6.55,9.21,14.88,8.77,32.14M4.45,27.93c-2.57-.03-5.67-3.17-4.62-16.86C.7-.35,2.43-7.97,4.45-19.64,6.47-7.97,8.2-.35,9.07,11.07c1.05,13.69-2.06,16.83-4.62,16.86M24.03,25.7c1.34,0,2.43,1.36,2.43,3.05s-1.09,3.04-2.43,3.04-2.44-1.36-2.44-3.04,1.09-3.05,2.44-3.05M26.47,21.67c5.07-5.7,7.56-17.91,7.56-17.91v29.84l-7.56-11.93ZM29.05-41.14l4.98-6.19v16.52s-1.48-6.85-4.98-10.33M-7.31-33.19c2.74,2.79,3.58,5.78,6.09,9.32-3.67-1.09-5.09-1.75-8.54-3.82-3.77-2.26-3.8-4.57-3.12-6.08.68-1.52,2.31-2.75,5.58.59M-12.4-25.84c4.45.71,8.28,2.11,12.85,3.75-4.64,1.75-7.95,3.16-12.85,3.74-5.33.64-6.52-1.68-6.52-3.74,0-2.06,1.2-4.59,6.52-3.75M-19.35-4.01c-.93-2.11-.58-5.8,6.38-9.91,5.82-3.43,8.47-4.24,14.85-6.83C-3.07-14.63-3.82-11.45-9.61-6.29-15.91-.65-18.42-1.91-19.35-4.01M-11.66,14.75c-1.89-1.43-3.2-5.46,2.04-15.01C-5.23-8.23-2.17-12.48,3.17-20.03.88-9.99.81-4.79-2.75,4.92c-3.89,10.59-7.01,11.25-8.91,9.82M4.45-29.52c3.31,0,6,1.43,6,3.2s-2.68,6.01-6,6.01-6-4.25-6-6.01,2.68-3.2,6-3.2M-15.13,25.7c1.34,0,2.44,1.36,2.44,3.05s-1.09,3.04-2.44,3.04-2.44-1.36-2.44-3.04,1.09-3.05,2.44-3.05M-17.57,21.67l-7.56,11.93V3.76s2.49,12.22,7.56,17.91M-25.13-30.8v-16.52l4.98,6.19c-3.5,3.48-4.98,10.33-4.98,10.33" style="fill:#231f20; stroke:#231f20; stroke-miterlimit:10; stroke-width:.5px;"/></g><polygon points="-310.35 -13.3 -310.35 14.7 183.97 14.7 211.51 -12.84 211.51 -13.3 -310.35 -13.3" style="fill:none; stroke:#231f20; stroke-miterlimit:10; stroke-width:.5px;"/><polygon points="211.51 -12.84 184.15 14.52 184.15 669.71 211.51 697.08 212.15 697.08 212.15 -12.84 211.51 -12.84" style="fill:#fff;"/><g style="clip-path:url(#c);"><path d="M232.47,211.55c1.51-.68,2.75-2.31-.59-5.58-2.79-2.73-5.77-3.58-9.29-6.08,1.08,3.67,1.75,5.09,3.81,8.54,2.25,3.77,4.56,3.8,6.07,3.12M220.82,217.59c-2.06,0-4.38-1.19-3.74-6.52.58-4.89,1.99-8.21,3.74-12.85,1.63,4.56,3.03,8.4,3.74,12.85.84,5.32-1.68,6.52-3.74,6.52M202.77,218.02c-2.1-.93-3.35-3.44,2.27-9.75,5.15-5.78,8.33-6.54,14.43-11.48-2.59,6.38-3.39,9.04-6.82,14.85-4.1,6.96-7.79,7.31-9.89,6.38M184.06,210.33c-1.43-1.9-.77-5.02,9.8-8.91,9.69-3.57,14.88-3.63,24.9-5.92-7.53,5.33-11.77,8.4-19.73,12.78-9.52,5.24-13.55,3.94-14.97,2.05M208.35,223.14c-27.36-.71-39.45-19.68-43.1-28.92,3.65-9.25,15.74-28.22,43.1-28.92,17.23-.45,25.53,3.56,32.07,8.76,3.53,2.82,5.57,5.88,5.57,11.13,0,5.57-4.85,7.77-9.3,7.74-3.74-.02-6.35-1.76-6.35-4.23,0-1.82,1.01-3.3,2.76-4.08,1.43-.64,3.18-.67,4.33-.09.56.29.95.7,1.13,1.18.19.32.31.67.31,1.05,0,1.38-1.39,2.49-3.11,2.49-1.53,0-2.75-.9-3.01-2.07-.24.39-.42.86-.42,1.5,0,1.79,2.04,2.9,4.15,2.92,3.45.02,6.5-2.04,6.59-6.31.13-3.44-1.31-6.1-4.57-8.69-6.15-4.9-14.69-8.85-29.98-8.69-24.58.25-37.63,16.51-42.21,26.29,4.58,9.78,17.63,26.05,42.21,26.29,15.29.15,23.83-3.79,29.98-8.69,3.26-2.59,4.7-5.26,4.57-8.69-.09-4.27-3.14-6.33-6.59-6.31-2.1.01-4.15,1.13-4.15,2.92,0,.65.18,1.12.42,1.51.26-1.17,1.48-2.07,3.01-2.07,1.72,0,3.11,1.12,3.11,2.49,0,.38-.12.73-.31,1.05-.18.48-.57.9-1.13,1.18-1.16.59-2.9.55-4.33-.08-1.76-.78-2.76-2.26-2.76-4.08,0-2.47,2.61-4.21,6.35-4.23,4.45-.03,9.3,2.17,9.3,7.74,0,5.25-2.04,8.32-5.57,11.13-6.54,5.21-14.84,9.21-32.07,8.77M170.9,194.22c.03-2.56,3.16-5.67,16.82-4.62,11.4.87,19.01,2.6,30.65,4.62-11.64,2.02-19.25,3.75-30.65,4.63-13.66,1.04-16.79-2.06-16.82-4.63M173.13,213.8c0,1.34-1.36,2.43-3.04,2.43s-3.04-1.09-3.04-2.43,1.36-2.44,3.04-2.44,3.04,1.09,3.04,2.44M177.15,216.23c5.68,5.07,17.87,7.56,17.87,7.56h-29.77l11.9-7.56ZM239.81,218.82l6.18,4.98h-16.49s6.84-1.48,10.31-4.98M231.89,182.46c-2.79,2.74-5.77,3.58-9.29,6.09,1.08-3.67,1.75-5.09,3.81-8.54,2.25-3.77,4.56-3.8,6.07-3.12,1.51.68,2.75,2.31-.59,5.58M224.55,177.37c-.7,4.45-2.1,8.28-3.74,12.85-1.75-4.64-3.15-7.95-3.74-12.85-.64-5.33,1.67-6.52,3.74-6.53,2.06,0,4.58,1.2,3.74,6.53M202.77,170.41c2.1-.93,5.79-.58,9.89,6.38,3.43,5.82,4.23,8.48,6.82,14.85-6.1-4.95-9.28-5.7-14.43-11.49-5.62-6.3-4.37-8.82-2.27-9.75M184.06,178.11c1.43-1.89,5.45-3.2,14.97,2.05,7.96,4.38,12.2,7.45,19.73,12.78-10.02-2.29-15.21-2.35-24.9-5.92-10.57-3.89-11.23-7.01-9.8-8.91M228.22,194.22c0,3.31-1.43,6-3.19,6s-6-2.68-6-6,4.24-6,6-6,3.19,2.68,3.19,6M173.13,174.63c0,1.35-1.36,2.44-3.04,2.44s-3.04-1.09-3.04-2.44,1.36-2.44,3.04-2.44,3.04,1.09,3.04,2.44M177.15,172.2l-11.9-7.56h29.77s-12.19,2.49-17.87,7.56M229.5,164.64h16.49l-6.18,4.98c-3.47-3.5-10.31-4.98-10.31-4.98" style="fill:#231f20; stroke:#231f20; stroke-miterlimit:10; stroke-width:.5px;"/><path d="M232.47,152.39c1.51-.68,2.75-2.31-.59-5.58-2.79-2.74-5.77-3.58-9.29-6.09,1.08,3.67,1.75,5.09,3.81,8.54,2.25,3.77,4.56,3.8,6.07,3.12M220.82,158.43c-2.06,0-4.38-1.19-3.74-6.52.58-4.89,1.99-8.21,3.74-12.85,1.63,4.56,3.03,8.4,3.74,12.85.84,5.32-1.68,6.52-3.74,6.52M202.77,158.86c-2.1-.93-3.35-3.44,2.27-9.75,5.15-5.78,8.33-6.54,14.43-11.48-2.59,6.38-3.39,9.03-6.82,14.85-4.1,6.96-7.79,7.31-9.89,6.38M184.06,151.17c-1.43-1.9-.77-5.02,9.8-8.91,9.69-3.57,14.88-3.63,24.9-5.92-7.53,5.33-11.77,8.4-19.73,12.78-9.52,5.24-13.55,3.94-14.97,2.05M208.35,163.98c-27.36-.71-39.45-19.68-43.1-28.92,3.65-9.25,15.74-28.22,43.1-28.92,17.23-.44,25.53,3.56,32.07,8.77,3.53,2.82,5.57,5.88,5.57,11.13,0,5.57-4.85,7.77-9.3,7.74-3.74-.03-6.35-1.76-6.35-4.23,0-1.82,1.01-3.3,2.76-4.08,1.43-.64,3.18-.67,4.33-.09.56.29.95.7,1.13,1.18.19.32.31.67.31,1.05,0,1.38-1.39,2.49-3.11,2.49-1.53,0-2.75-.9-3.01-2.07-.24.39-.42.86-.42,1.51,0,1.79,2.04,2.9,4.15,2.92,3.45.03,6.5-2.04,6.59-6.31.13-3.44-1.31-6.1-4.57-8.69-6.15-4.9-14.69-8.85-29.98-8.69-24.58.25-37.63,16.51-42.21,26.29,4.58,9.78,17.63,26.04,42.21,26.29,15.29.15,23.83-3.79,29.98-8.7,3.26-2.59,4.7-5.26,4.57-8.69-.09-4.27-3.14-6.33-6.59-6.31-2.1.01-4.15,1.13-4.15,2.92,0,.64.18,1.11.42,1.51.26-1.17,1.48-2.07,3.01-2.07,1.72,0,3.11,1.12,3.11,2.49,0,.38-.12.73-.31,1.05-.18.48-.57.9-1.13,1.18-1.16.59-2.9.55-4.33-.09-1.76-.77-2.76-2.26-2.76-4.08,0-2.47,2.61-4.21,6.35-4.23,4.45-.03,9.3,2.17,9.3,7.74,0,5.25-2.04,8.32-5.57,11.13-6.54,5.21-14.84,9.21-32.07,8.77M170.9,135.06c.03-2.57,3.16-5.67,16.82-4.62,11.4.87,19.01,2.6,30.65,4.62-11.64,2.02-19.25,3.75-30.65,4.62-13.66,1.04-16.79-2.06-16.82-4.62M173.13,154.64c0,1.34-1.36,2.43-3.04,2.43s-3.04-1.09-3.04-2.43,1.36-2.44,3.04-2.44,3.04,1.09,3.04,2.44M177.15,157.07c5.68,5.07,17.87,7.56,17.87,7.56h-29.77l11.9-7.56ZM239.81,159.66l6.18,4.98h-16.49s6.84-1.48,10.31-4.98M231.89,123.3c-2.79,2.74-5.77,3.58-9.29,6.09,1.08-3.67,1.75-5.09,3.81-8.54,2.25-3.77,4.56-3.8,6.07-3.12,1.51.68,2.75,2.31-.59,5.58M224.55,118.21c-.7,4.45-2.1,8.28-3.74,12.85-1.75-4.64-3.15-7.95-3.74-12.85-.64-5.33,1.67-6.52,3.74-6.53,2.06,0,4.58,1.2,3.74,6.53M202.77,111.25c2.1-.93,5.79-.58,9.89,6.38,3.43,5.82,4.23,8.48,6.82,14.85-6.1-4.95-9.28-5.7-14.43-11.49-5.62-6.3-4.37-8.82-2.27-9.75M184.06,118.95c1.43-1.89,5.45-3.2,14.97,2.05,7.96,4.38,12.2,7.45,19.73,12.78-10.02-2.29-15.21-2.35-24.9-5.92-10.57-3.89-11.23-7.01-9.8-8.91M228.22,135.06c0,3.31-1.43,6-3.19,6s-6-2.68-6-6,4.24-6,6-6,3.19,2.68,3.19,6M173.13,115.47c0,1.35-1.36,2.44-3.04,2.44s-3.04-1.09-3.04-2.44,1.36-2.44,3.04-2.44,3.04,1.09,3.04,2.44M177.15,113.04l-11.9-7.56h29.77s-12.19,2.49-17.87,7.56M229.5,105.48h16.49l-6.18,4.98c-3.47-3.5-10.31-4.98-10.31-4.98" style="fill:#231f20; stroke:#231f20; stroke-miterlimit:10; stroke-width:.5px;"/><path d="M232.47,93.23c1.51-.68,2.75-2.31-.59-5.58-2.79-2.74-5.77-3.58-9.29-6.09,1.08,3.67,1.75,5.09,3.81,8.54,2.25,3.77,4.56,3.8,6.07,3.12M220.82,99.27c-2.06,0-4.38-1.19-3.74-6.52.58-4.89,1.99-8.21,3.74-12.85,1.63,4.56,3.03,8.4,3.74,12.85.84,5.32-1.68,6.52-3.74,6.52M202.77,99.7c-2.1-.93-3.35-3.44,2.27-9.75,5.15-5.78,8.33-6.54,14.43-11.48-2.59,6.38-3.39,9.03-6.82,14.85-4.1,6.96-7.79,7.31-9.89,6.38M184.06,92.01c-1.43-1.9-.77-5.02,9.8-8.91,9.69-3.57,14.88-3.63,24.9-5.92-7.53,5.33-11.77,8.4-19.73,12.78-9.52,5.24-13.55,3.94-14.97,2.05M208.35,104.82c-27.36-.71-39.45-19.68-43.1-28.92,3.65-9.25,15.74-28.22,43.1-28.92,17.23-.45,25.53,3.56,32.07,8.76,3.53,2.82,5.57,5.88,5.57,11.13,0,5.57-4.85,7.77-9.3,7.74-3.74-.03-6.35-1.76-6.35-4.23,0-1.82,1.01-3.3,2.76-4.08,1.43-.64,3.18-.67,4.33-.09.56.29.95.7,1.13,1.18.19.32.31.67.31,1.05,0,1.38-1.39,2.49-3.11,2.49-1.53,0-2.75-.9-3.01-2.07-.24.39-.42.86-.42,1.51,0,1.79,2.04,2.9,4.15,2.92,3.45.03,6.5-2.04,6.59-6.31.13-3.44-1.31-6.1-4.57-8.69-6.15-4.9-14.69-8.85-29.98-8.69-24.58.25-37.63,16.51-42.21,26.29,4.58,9.78,17.63,26.04,42.21,26.29,15.29.15,23.83-3.79,29.98-8.7,3.26-2.59,4.7-5.26,4.57-8.69-.09-4.27-3.14-6.33-6.59-6.31-2.1.01-4.15,1.13-4.15,2.92,0,.64.18,1.11.42,1.51.26-1.17,1.48-2.07,3.01-2.07,1.72,0,3.11,1.12,3.11,2.49,0,.38-.12.73-.31,1.05-.18.48-.57.9-1.13,1.18-1.16.59-2.9.55-4.33-.08-1.76-.78-2.76-2.26-2.76-4.08,0-2.47,2.61-4.21,6.35-4.23,4.45-.03,9.3,2.17,9.3,7.74,0,5.25-2.04,8.32-5.57,11.13-6.54,5.21-14.84,9.21-32.07,8.77M170.9,75.9c.03-2.57,3.16-5.67,16.82-4.62,11.4.87,19.01,2.6,30.65,4.62-11.64,2.02-19.25,3.75-30.65,4.62-13.66,1.04-16.79-2.06-16.82-4.62M173.13,95.48c0,1.34-1.36,2.43-3.04,2.43s-3.04-1.09-3.04-2.43,1.36-2.44,3.04-2.44,3.04,1.09,3.04,2.44M177.15,97.91c5.68,5.07,17.87,7.56,17.87,7.56h-29.77l11.9-7.56ZM239.81,100.5l6.18,4.98h-16.49s6.84-1.48,10.31-4.98M231.89,64.14c-2.79,2.74-5.77,3.58-9.29,6.09,1.08-3.67,1.75-5.09,3.81-8.54,2.25-3.77,4.56-3.8,6.07-3.12,1.51.68,2.75,2.31-.59,5.58M224.55,59.05c-.7,4.45-2.1,8.28-3.74,12.85-1.75-4.64-3.15-7.95-3.74-12.85-.64-5.33,1.67-6.52,3.74-6.53,2.06,0,4.58,1.2,3.74,6.53M202.77,52.09c2.1-.93,5.79-.58,9.89,6.38,3.43,5.82,4.23,8.48,6.82,14.85-6.1-4.95-9.28-5.7-14.43-11.49-5.62-6.3-4.37-8.82-2.27-9.75M184.06,59.79c1.43-1.89,5.45-3.2,14.97,2.05,7.96,4.38,12.2,7.45,19.73,12.78-10.02-2.29-15.21-2.35-24.9-5.92-10.57-3.89-11.23-7.01-9.8-8.91M228.22,75.9c0,3.31-1.43,6-3.19,6s-6-2.68-6-6,4.24-6,6-6,3.19,2.68,3.19,6M173.13,56.31c0,1.35-1.36,2.44-3.04,2.44s-3.04-1.09-3.04-2.44,1.36-2.44,3.04-2.44,3.04,1.09,3.04,2.44M177.15,53.88l-11.9-7.56h29.77s-12.19,2.49-17.87,7.56M229.5,46.32h16.49l-6.18,4.98c-3.47-3.5-10.31-4.98-10.31-4.98" style="fill:#231f20; stroke:#231f20; stroke-miterlimit:10; stroke-width:.5px;"/><path d="M232.47,34.07c1.51-.68,2.75-2.31-.59-5.58-2.79-2.74-5.77-3.58-9.29-6.09,1.08,3.67,1.75,5.09,3.81,8.54,2.25,3.77,4.56,3.8,6.07,3.12M220.82,40.11c-2.06,0-4.38-1.19-3.74-6.52.58-4.89,1.99-8.21,3.74-12.85,1.63,4.56,3.03,8.4,3.74,12.85.84,5.32-1.68,6.52-3.74,6.52M202.77,40.54c-2.1-.93-3.35-3.44,2.27-9.75,5.15-5.78,8.33-6.54,14.43-11.48-2.59,6.38-3.39,9.03-6.82,14.85-4.1,6.96-7.79,7.31-9.89,6.38M184.06,32.85c-1.43-1.9-.77-5.02,9.8-8.91,9.69-3.57,14.88-3.63,24.9-5.92-7.53,5.33-11.77,8.4-19.73,12.78-9.52,5.24-13.55,3.94-14.97,2.05M208.35,45.66c-27.36-.71-39.45-19.68-43.1-28.92,3.65-9.25,15.74-28.22,43.1-28.92,17.23-.44,25.53,3.56,32.07,8.77,3.53,2.82,5.57,5.88,5.57,11.13,0,5.57-4.85,7.77-9.3,7.74-3.74-.03-6.35-1.76-6.35-4.23,0-1.82,1.01-3.3,2.76-4.08,1.43-.64,3.18-.67,4.33-.09.56.29.95.7,1.13,1.18.19.32.31.67.31,1.05,0,1.38-1.39,2.49-3.11,2.49-1.53,0-2.75-.9-3.01-2.07-.24.39-.42.86-.42,1.51,0,1.79,2.04,2.9,4.15,2.92,3.45.03,6.5-2.04,6.59-6.31.13-3.44-1.31-6.1-4.57-8.69-6.15-4.9-14.69-8.85-29.98-8.69-24.58.25-37.63,16.51-42.21,26.29,4.58,9.78,17.63,26.04,42.21,26.29,15.29.15,23.83-3.79,29.98-8.7,3.26-2.59,4.7-5.26,4.57-8.69-.09-4.27-3.14-6.33-6.59-6.31-2.1.01-4.15,1.13-4.15,2.92,0,.64.18,1.11.42,1.51.26-1.17,1.48-2.07,3.01-2.07,1.72,0,3.11,1.12,3.11,2.49,0,.38-.12.73-.31,1.05-.18.48-.57.9-1.13,1.18-1.16.59-2.9.55-4.33-.09-1.76-.77-2.76-2.26-2.76-4.08,0-2.47,2.61-4.21,6.35-4.23,4.45-.03,9.3,2.17,9.3,7.74,0,5.25-2.04,8.32-5.57,11.13-6.54,5.21-14.84,9.21-32.07,8.77M170.9,16.74c.03-2.57,3.16-5.67,16.82-4.62,11.4.87,19.01,2.6,30.65,4.62-11.64,2.02-19.25,3.75-30.65,4.62-13.66,1.04-16.79-2.06-16.82-4.62M173.13,36.32c0,1.34-1.36,2.43-3.04,2.43s-3.04-1.09-3.04-2.43,1.36-2.44,3.04-2.44,3.04,1.09,3.04,2.44M177.15,38.75c5.68,5.07,17.87,7.56,17.87,7.56h-29.77l11.9-7.56ZM239.81,41.34l6.18,4.98h-16.49s6.84-1.48,10.31-4.98M231.89,4.98c-2.79,2.74-5.77,3.58-9.29,6.09,1.08-3.67,1.75-5.09,3.81-8.54,2.25-3.77,4.56-3.8,6.07-3.12,1.51.68,2.75,2.31-.59,5.58M224.55-.11c-.7,4.45-2.1,8.28-3.74,12.85-1.75-4.64-3.15-7.95-3.74-12.85-.64-5.33,1.67-6.52,3.74-6.53,2.06,0,4.58,1.2,3.74,6.53M202.77-7.07c2.1-.93,5.79-.58,9.89,6.38,3.43,5.82,4.23,8.48,6.82,14.85-6.1-4.95-9.28-5.7-14.43-11.49-5.62-6.3-4.37-8.82-2.27-9.75M184.06.63c1.43-1.89,5.45-3.2,14.97,2.05,7.96,4.38,12.2,7.45,19.73,12.78-10.02-2.29-15.21-2.35-24.9-5.92-10.57-3.89-11.23-7.01-9.8-8.91M228.22,16.74c0,3.31-1.43,6-3.19,6s-6-2.68-6-6,4.24-6,6-6,3.19,2.68,3.19,6M173.13-2.85c0,1.35-1.36,2.44-3.04,2.44s-3.04-1.09-3.04-2.44,1.36-2.44,3.04-2.44,3.04,1.09,3.04,2.44M177.15-5.28l-11.9-7.56h29.77s-12.19,2.49-17.87,7.56M229.5-12.84h16.49l-6.18,4.98c-3.47-3.5-10.31-4.98-10.31-4.98" style="fill:#231f20; stroke:#231f20; stroke-miterlimit:10; stroke-width:.5px;"/></g><polygon points="211.51 -12.84 184.15 14.52 184.15 669.71 211.51 697.08 212.15 697.08 212.15 -12.84 211.51 -12.84" style="fill:none; stroke:#231f20; stroke-miterlimit:10; stroke-width:.5px;"/><path d="M59.94,164.4l.21-1.3,2.07-.49c.09-.33.2-.73.32-1.21.12-.48.25-1.05.4-1.71.15-.66.31-1.38.47-2.18l1.44-6.68c.33-1.45.57-2.61.72-3.48.15-.87.24-1.46.26-1.79l-2.04-.49.35-1.3h6.93c2.11,0,3.74.43,4.89,1.28,1.15.86,1.72,2.07,1.72,3.64,0,1.05-.22,2.03-.67,2.94-.45.9-1.06,1.69-1.85,2.36-.79.67-1.71,1.19-2.76,1.56s-2.2.56-3.45.56c-.47,0-.93-.03-1.37-.09-.45-.06-.93-.15-1.44-.26l.42-1.76c.49.16.93.28,1.32.33s.79.09,1.21.09c1.73,0,3.08-.48,4.04-1.44.96-.96,1.44-2.3,1.44-4.01,0-1.22-.35-2.14-1.05-2.76s-1.72-.93-3.06-.93h-1.48c-.02.14-.11.5-.25,1.09s-.3,1.28-.47,2.07-.36,1.59-.54,2.39l-1.37,6.68c-.33,1.5-.56,2.64-.7,3.41s-.23,1.34-.28,1.69l2.74.42-.35,1.37h-7.84Z" style="fill:#231f20;"/><path d="M79.02,164.4l.21-1.3,2.25-.49c.07-.23.16-.55.26-.95s.23-.93.39-1.6c.15-.67.33-1.52.54-2.55l1.41-6.68c.33-1.59.57-2.79.72-3.6.15-.81.24-1.37.26-1.67l-2.04-.49.35-1.3h7.28c2.11,0,3.67.35,4.69,1.04s1.53,1.78,1.53,3.25c0,1.17-.38,2.27-1.14,3.3-.76,1.03-1.79,1.86-3.08,2.48-1.29.62-2.71.93-4.25.93h-2.64l.28-1.55h2.39c1.64,0,2.93-.46,3.87-1.39.94-.93,1.41-2.1,1.41-3.53,0-1.05-.32-1.82-.95-2.3s-1.57-.72-2.81-.72h-1.72c-.02.07-.06.2-.11.39-.05.19-.12.48-.21.88-.09.4-.22.94-.37,1.63-.15.69-.35,1.58-.58,2.65l-1.41,6.68c-.16.77-.3,1.45-.4,2.02s-.2,1.06-.28,1.46c-.08.4-.14.73-.18.98s-.06.47-.09.63l1.97.49-.35,1.3h-7.21ZM95.68,164.76c-.98,0-1.83-.18-2.53-.54s-1.32-.97-1.86-1.83c-.54-.86-1.07-2-1.58-3.43l-1.69-4.75,2.6-.6,2.6,5.59c.47.98.91,1.77,1.32,2.36.41.59.84,1.01,1.3,1.28s.99.44,1.6.51l-.32,1.27c-.21.05-.44.08-.69.11s-.5.04-.76.04Z" style="fill:#231f20;"/><path d="M110.83,164.72c-1.78,0-3.33-.35-4.64-1.04s-2.32-1.66-3.02-2.92-1.05-2.72-1.05-4.41.33-3.38.98-4.92,1.56-2.92,2.71-4.11,2.48-2.14,3.99-2.83,3.12-1.04,4.83-1.04,3.26.33,4.52,1,2.22,1.62,2.9,2.85,1.02,2.69,1.02,4.38-.33,3.35-.98,4.92-1.56,2.96-2.71,4.18-2.46,2.18-3.92,2.88-3.01,1.05-4.62,1.05ZM111.43,162.86c1.55,0,2.94-.49,4.17-1.46s2.2-2.29,2.92-3.94,1.07-3.51,1.07-5.57-.49-3.73-1.46-4.92-2.33-1.79-4.06-1.79c-1.55,0-2.95.49-4.22,1.46s-2.27,2.29-3.02,3.94-1.12,3.5-1.12,5.54.52,3.67,1.55,4.9,2.43,1.85,4.18,1.85Z" style="fill:#231f20;"/><path d="M67.28,114l2.59-10.77-1.83-.25.15-.71,3.68-1.09.41.36c-.14.49-.26.96-.37,1.4-.11.44-.21.85-.3,1.22-.09.37-.18.71-.27,1.02l-.86,3.38c-.25,1-.52,1.97-.79,2.92-.27.95-.62,2.04-1.04,3.28h-.2c.58-1.51,1.25-2.78,2.02-3.83.77-1.05,1.54-1.85,2.31-2.4.77-.55,1.44-.83,2.02-.83s1.05.24,1.38.72.5,1.11.5,1.89c0,1.17-.22,2.28-.65,3.33s-.99,1.98-1.68,2.79-1.41,1.45-2.17,1.9-1.47.69-2.13.69c-.85,0-1.52-.2-2.02-.61-.5-.41-.81-.98-.93-1.73-.12-.75-.06-1.63.18-2.67ZM69.08,116.03c0,.49.11.88.34,1.16s.55.42.98.42c.71,0,1.38-.3,1.99-.89.62-.59,1.12-1.41,1.51-2.44.39-1.03.58-2.21.58-3.53,0-.46-.06-.82-.18-1.08-.12-.26-.27-.39-.46-.39-.22,0-.52.15-.91.44-.39.3-.8.69-1.24,1.19-.44.5-.86,1.05-1.26,1.65-.4.6-.72,1.2-.98,1.8s-.38,1.16-.38,1.66Z" style="fill:#231f20;"/><path d="M81.65,119c-.64,0-1.23-.16-1.75-.47-.52-.31-.94-.76-1.24-1.35s-.46-1.27-.46-2.07c0-.91.15-1.81.46-2.69s.73-1.68,1.28-2.4c.55-.72,1.19-1.29,1.92-1.71.73-.42,1.51-.63,2.34-.63.64,0,1.23.16,1.76.47s.96.76,1.27,1.35c.31.58.47,1.27.47,2.07,0,.91-.16,1.82-.47,2.7-.31.89-.75,1.69-1.29,2.4-.55.71-1.19,1.28-1.92,1.7-.73.42-1.52.63-2.36.63ZM82.21,117.81c.51,0,.97-.17,1.38-.51.41-.34.77-.79,1.07-1.36.3-.57.52-1.21.69-1.92.16-.71.24-1.44.24-2.18,0-.93-.18-1.67-.55-2.21-.36-.54-.82-.81-1.36-.81-.51,0-.97.17-1.38.51-.42.34-.77.8-1.05,1.37-.29.58-.51,1.22-.67,1.94-.16.72-.24,1.45-.24,2.2,0,.98.18,1.72.55,2.22.36.5.81.75,1.33.75Z" style="fill:#231f20;"/><path d="M92.75,119c-.64,0-1.23-.16-1.75-.47-.52-.31-.94-.76-1.24-1.35s-.46-1.27-.46-2.07c0-.91.15-1.81.46-2.69s.73-1.68,1.28-2.4c.55-.72,1.19-1.29,1.92-1.71.73-.42,1.51-.63,2.34-.63.64,0,1.23.16,1.76.47s.96.76,1.27,1.35c.31.58.47,1.27.47,2.07,0,.91-.16,1.82-.47,2.7-.31.89-.75,1.69-1.29,2.4-.55.71-1.19,1.28-1.92,1.7-.73.42-1.52.63-2.36.63ZM93.31,117.81c.51,0,.97-.17,1.38-.51.41-.34.77-.79,1.07-1.36.3-.57.52-1.21.69-1.92.16-.71.24-1.44.24-2.18,0-.93-.18-1.67-.55-2.21-.36-.54-.82-.81-1.36-.81-.51,0-.97.17-1.38.51-.42.34-.77.8-1.05,1.37-.29.58-.51,1.22-.67,1.94-.16.72-.24,1.45-.24,2.2,0,.98.18,1.72.55,2.22.36.5.81.75,1.33.75Z" style="fill:#231f20;"/><path d="M100.16,118.8c.29-1.15.57-2.31.86-3.48.29-1.17.56-2.29.81-3.38l1.98-8.71-1.83-.25.13-.71,3.68-1.09.43.36c-.14.49-.27.99-.41,1.51-.14.52-.27,1.04-.41,1.59-.14.54-.28,1.12-.43,1.73l-1.4,5.69c-.27,1.13-.53,2.26-.78,3.38-.24,1.12-.49,2.24-.75,3.38h-1.9ZM106.99,119c-.37,0-.66-.12-.86-.36s-.41-.6-.61-1.09l-1.62-4.04h-1.04l.2-.63,1.07-.25,3.88-3.53-1.62-.28.28-.94h5.18l-.13.94-1.75.3-4.75,3.81.15-.63c.49,1.08.96,2.1,1.42,3.06s.83,1.69,1.12,2.2c.37-.2.73-.46,1.07-.77.34-.31.68-.68,1.02-1.1l.61.74c-.42.52-.85.98-1.28,1.37s-.85.69-1.24.9c-.4.21-.76.32-1.08.32Z" style="fill:#231f20;"/><path d="M113.85,119c-.54,0-1.04-.08-1.49-.25s-.81-.4-1.08-.7-.41-.61-.41-.95c0-.24.04-.45.13-.63s.2-.36.36-.53c.46.58.96,1.02,1.5,1.35s1.05.48,1.52.48.85-.12,1.12-.36.41-.59.41-1.07c0-.29-.1-.59-.3-.91s-.58-.72-1.14-1.19c-.56-.52-.99-.96-1.29-1.32s-.52-.68-.63-.98-.18-.6-.18-.9c0-.63.17-1.19.52-1.7s.82-.91,1.42-1.21,1.27-.44,1.99-.44c.42,0,.83.06,1.23.18s.72.29.98.51.38.49.38.81c0,.2-.04.38-.13.55s-.2.33-.36.5c-.42-.44-.87-.78-1.35-1.02s-.93-.36-1.37-.36c-.47,0-.85.14-1.13.41s-.42.63-.42,1.07c0,.2.05.41.14.62s.25.44.47.7.53.57.94.94c.56.51.98.94,1.27,1.28s.49.66.6.94.17.57.17.88c0,.59-.18,1.14-.55,1.65s-.84.91-1.42,1.22-1.21.46-1.89.46Z" style="fill:#231f20;"/><path d="M18.93,76.31c-.31,0-.57-.05-.8-.16-.23-.11-.35-.25-.35-.44,0-.25.11-.44.32-.6.21-.15.52-.26.92-.32,1.17-.25,2.02-.59,2.58-1.04.55-.44.83-1.17.83-2.18v-18.63c0-1.26-.03-2.21-.09-2.85-.06-.64-.15-1.08-.25-1.31-.11-.23-.27-.36-.48-.39-.31-.12-.69-.2-1.15-.23s-.9-.05-1.33-.05h-1.43c-.89,0-1.75.21-2.58.62s-1.47.97-1.93,1.68c-.12.18-.31.44-.57.78-.26.34-.54.64-.83.92-.29.28-.59.41-.9.41-.21,0-.36-.08-.44-.23-.08-.15-.11-.32-.11-.51,0-.37.09-.74.28-1.1.52-1.04.91-1.95,1.17-2.74.26-.78.44-1.71.53-2.78.06-.46.19-.76.39-.9.2-.14.41-.21.62-.21.18,0,.41.19.67.57.26.38.5.7.71.94.28.28.77.48,1.47.62.71.14,1.3.21,1.79.21l16.97-.05c.86,0,1.58-.07,2.16-.21.58-.14,1.04-.28,1.38-.44.46-.28.83-.56,1.1-.85.28-.29.6-.44.97-.44.15,0,.27.08.35.25.08.17.11.38.11.62,0,.15-.02.33-.05.53-.03.2-.06.38-.09.53-.12.58-.25,1.1-.37,1.54-.12.44-.22.86-.3,1.24-.08.38-.12.82-.12,1.31v.78c0,.43-.06.8-.18,1.1-.12.31-.32.46-.6.46-.25,0-.45-.14-.62-.44-.17-.29-.35-.74-.53-1.36-.28-.98-.74-1.71-1.38-2.18s-1.66-.71-3.04-.71h-3.13c-.58,0-1.03.11-1.36.32-.32.21-.55.68-.69,1.4-.14.72-.21,1.83-.21,3.33v18.35c0,.98.28,1.69.83,2.14.55.45,1.43.82,2.62,1.13.37.09.66.2.87.32.21.12.32.31.32.55,0,.21-.1.37-.3.46-.2.09-.45.14-.76.14-.74,0-1.47-.02-2.21-.05-.74-.03-1.46-.06-2.19-.09-.72-.03-1.42-.05-2.09-.05s-1.37.02-2.09.05c-.72.03-1.46.07-2.21.12-.75.05-1.5.07-2.23.07Z" style="fill:#231f20;"/><path d="M46.12,76.35c-.37,0-.67-.05-.92-.16-.25-.11-.37-.28-.37-.53,0-.28.12-.49.35-.64s.53-.29.9-.41c.89-.25,1.66-.62,2.32-1.13.66-.51,1.19-1.2,1.59-2.09.77-1.81,1.5-3.55,2.21-5.22.71-1.67,1.38-3.33,2.02-4.99s1.29-3.34,1.95-5.06c.66-1.72,1.33-3.53,2-5.43.34-.95.57-1.69.69-2.21.12-.52.23-.9.32-1.15.46-.12.89-.25,1.29-.37.4-.12.84-.28,1.33-.46.43-.21.8-.49,1.1-.83.31-.34.54-.6.69-.78.09-.06.18-.1.28-.12.09-.02.18.05.28.21.09.18.17.37.23.55.06.18.12.38.18.6.67,2.18,1.37,4.38,2.09,6.6.72,2.22,1.43,4.42,2.14,6.58.71,2.16,1.39,4.23,2.05,6.21.66,1.98,1.27,3.79,1.82,5.45.28.83.62,1.49,1.04,1.98.41.49.87.87,1.38,1.13s1.06.47,1.68.62c.4.09.71.21.92.37.21.15.32.37.32.64,0,.18-.1.32-.3.41-.2.09-.45.14-.76.14-.55,0-1.25-.02-2.09-.05-.84-.03-1.71-.07-2.6-.12-.89-.05-1.69-.07-2.39-.07-.61,0-1.3.02-2.05.05-.75.03-1.5.06-2.25.09-.75.03-1.39.05-1.91.05-.31,0-.57-.05-.8-.16-.23-.11-.35-.27-.35-.48,0-.25.12-.45.37-.62.25-.17.54-.28.87-.34,1.1-.18,1.9-.47,2.39-.85.49-.38.67-.94.55-1.68-.09-.52-.23-1.14-.41-1.86-.18-.72-.38-1.47-.58-2.25-.2-.78-.41-1.5-.62-2.14-.06-.25-.15-.42-.28-.53s-.35-.16-.69-.16h-8.28c-.21,0-.38.07-.51.21-.12.14-.22.34-.28.62-.12.4-.27.85-.44,1.36-.17.51-.34,1.03-.51,1.56-.17.54-.32,1.04-.46,1.5s-.24.86-.3,1.2c-.15.83,0,1.48.44,1.96.44.48,1.22.85,2.32,1.13.83.21,1.24.54,1.24.97,0,.18-.1.33-.3.44-.2.11-.48.16-.85.16-.71,0-1.44-.02-2.21-.07-.77-.05-1.61-.07-2.53-.07s-1.82.05-2.69.14-1.76.14-2.65.14ZM57.06,63.01h6.39c.43,0,.64-.09.64-.28,0-.09,0-.17-.02-.23-.02-.06-.04-.15-.07-.28l-3.22-10.63c-.12-.43-.23-.64-.32-.64-.06,0-.17.2-.32.6l-3.86,10.67c-.06.15-.09.28-.09.37,0,.15.08.26.25.32.17.06.38.09.62.09Z" style="fill:#231f20;"/><path d="M83.7,76.35c-.34,0-.61-.06-.81-.18-.2-.12-.3-.28-.3-.46,0-.4.4-.69,1.2-.87,1.07-.28,1.86-.62,2.37-1.04.51-.41.76-1.13.76-2.14v-20.84c0-1.04-.21-1.79-.62-2.25s-1.17-.78-2.28-.97c-.43-.06-.74-.18-.92-.37-.18-.18-.28-.37-.28-.55,0-.21.1-.38.3-.48.2-.11.47-.16.81-.16.92,0,1.67.02,2.25.05.58.03,1.13.07,1.66.12.52.05,1.13.07,1.84.07s1.28-.03,1.82-.09c.54-.06,1.13-.12,1.77-.18.64-.06,1.47-.09,2.48-.09,3.62,0,6.35.51,8.21,1.54,1.85,1.03,2.78,2.8,2.78,5.31,0,.98-.21,1.89-.62,2.71-.41.83-.9,1.47-1.45,1.93-.49.46-.98.83-1.47,1.1-.49.28-1.09.52-1.79.74-.12.03-.18.11-.18.23s.06.2.18.23c.77.18,1.56.43,2.37.74s1.58.74,2.3,1.29c.72.55,1.3,1.27,1.75,2.14s.67,1.99.67,3.33c0,1.72-.27,3.07-.8,4.07-.54,1-1.18,1.76-1.93,2.28-.75.52-1.45.95-2.09,1.29-.98.49-2.11.86-3.38,1.1s-2.8.37-4.58.37c-.83,0-1.72-.03-2.67-.09s-1.95-.09-2.99-.09c-.71,0-1.4.01-2.09.05-.69.03-1.39.07-2.09.12-.71.05-1.43.07-2.16.07ZM94.78,59.15c.77,0,1.52-.09,2.25-.28.74-.18,1.47-.52,2.21-1.01.28-.21.62-.66,1.04-1.33s.62-1.66.62-2.94c0-1.13-.16-2.15-.48-3.04-.32-.89-.87-1.59-1.66-2.09s-1.86-.76-3.24-.76c-1.01,0-1.71.17-2.09.51-.38.34-.58.84-.58,1.52v7.77c0,.64.23,1.08.69,1.31.46.23.87.35,1.24.35ZM95.94,74.01c1.07,0,2.07-.29,2.99-.87.92-.58,1.66-1.36,2.21-2.35.55-.98.83-2.07.83-3.27s-.15-2.06-.46-2.78c-.31-.72-.67-1.3-1.08-1.75s-.79-.77-1.13-.99c-.31-.21-.81-.44-1.5-.69-.69-.25-1.57-.37-2.65-.37-.67,0-1.23.15-1.66.46s-.64.66-.64,1.06v8.51c0,1.07.27,1.85.8,2.32.54.48,1.3.71,2.28.71Z" style="fill:#231f20;"/><path d="M116.22,76.35c-.34,0-.6-.07-.78-.21-.18-.14-.28-.28-.28-.44,0-.25.11-.44.32-.58.21-.14.43-.24.64-.3,1.1-.28,1.92-.62,2.44-1.04s.78-1.1.78-2.05v-21.16c0-.71-.08-1.24-.25-1.61-.17-.37-.46-.65-.87-.85-.41-.2-1.02-.38-1.82-.53-.8-.15-1.2-.48-1.2-.97,0-.18.11-.33.32-.44s.46-.16.74-.16c.77,0,1.5.02,2.18.05.69.03,1.36.06,2,.09.64.03,1.29.05,1.93.05.71,0,1.42-.01,2.14-.05.72-.03,1.46-.06,2.21-.09.75-.03,1.48-.05,2.18-.05.31,0,.55.05.74.16.18.11.28.27.28.48,0,.25-.1.44-.3.58-.2.14-.48.25-.85.35-1.2.31-2.08.64-2.64.99-.57.35-.85.97-.85,1.86v21.02c0,.89.2,1.54.6,1.96.4.41,1.15.62,2.25.62h5.01c.71,0,1.35-.12,1.93-.37.58-.24,1.06-.55,1.43-.92.55-.49,1.01-1.01,1.38-1.56s.72-1.2,1.06-1.93c.21-.46.41-.81.6-1.06.18-.25.37-.37.55-.37.21,0,.37.1.46.3.09.2.14.41.14.62,0,.03-.02.12-.05.28-.03.15-.05.28-.05.37-.25.89-.45,1.66-.62,2.3-.17.64-.31,1.26-.41,1.86-.11.6-.21,1.25-.3,1.96-.03.21-.09.41-.18.57-.09.17-.28.25-.55.25-.92,0-2.02-.02-3.31-.05s-2.65-.05-4.09-.07c-1.44-.02-2.89-.04-4.35-.07-1.46-.03-2.83-.05-4.12-.05-.67,0-1.45.01-2.32.05-.87.03-1.7.07-2.46.12-.77.05-1.32.07-1.66.07Z" style="fill:#231f20;"/><path d="M147.36,76.35c-.34,0-.61-.06-.8-.18-.2-.12-.3-.28-.3-.46,0-.4.4-.69,1.2-.87,1.1-.28,1.89-.62,2.37-1.04s.71-1.13.71-2.14v-20.84c0-1.04-.21-1.78-.62-2.21s-1.19-.77-2.32-1.01c-.43-.09-.74-.22-.92-.39-.18-.17-.28-.34-.28-.53,0-.21.1-.38.3-.48.2-.11.47-.16.8-.16.89,0,1.74.02,2.55.05.81.03,1.6.06,2.37.09.77.03,1.56.05,2.39.05,1.41,0,2.91-.01,4.49-.05,1.58-.03,3-.05,4.25-.05,1.01-.03,1.85-.08,2.51-.14.66-.06,1.05-.09,1.17-.09.21,0,.44.05.67.14.23.09.36.28.39.55.12,1.01.28,2.01.46,2.99.18.98.28,1.84.28,2.58,0,.28-.07.48-.21.62-.14.14-.28.21-.44.21s-.29-.05-.41-.16c-.12-.11-.23-.27-.32-.48-.25-.71-.48-1.32-.69-1.84s-.46-.92-.74-1.2c-.4-.43-.86-.77-1.38-1.01-.52-.25-1.15-.37-1.89-.37h-4.28c-.55,0-1.06.16-1.52.48s-.69.77-.69,1.36v9.02c0,.34.1.6.3.78.2.18.44.28.71.28h4.23c.83,0,1.42-.23,1.77-.69s.65-1.09.9-1.89c.21-.61.51-.92.87-.92.15,0,.29.08.41.25.12.17.18.39.18.67-.03.31-.06.67-.09,1.1-.03.43-.05.86-.07,1.29-.02.43-.02.81-.02,1.15,0,.37,0,.78.02,1.24.01.46.03.91.05,1.36s.04.82.07,1.13c.03.34,0,.6-.07.78-.08.18-.21.28-.39.28-.49,0-.84-.43-1.06-1.29-.25-.86-.54-1.5-.87-1.93-.34-.43-.8-.64-1.38-.64h-4.32c-.4,0-.71.08-.92.23s-.32.45-.32.87v8.74c0,1.01.21,1.72.64,2.12.43.4,1.09.6,1.98.6h3.77c.77,0,1.46-.08,2.09-.23.63-.15,1.17-.4,1.63-.74.52-.37.99-.87,1.4-1.5.41-.63.82-1.33,1.22-2.09.12-.25.25-.41.37-.48.12-.08.28-.12.46-.12.15.03.27.12.35.28.08.15.11.32.11.51,0,.43-.08.98-.23,1.66-.15.67-.34,1.37-.58,2.09-.23.72-.44,1.39-.62,2-.09.21-.21.38-.37.48-.15.11-.34.16-.55.16-.74,0-1.68,0-2.83-.02-1.15-.02-2.4-.04-3.75-.07s-2.73-.05-4.14-.07c-1.41-.02-2.76-.02-4.05-.02-.64,0-1.3.01-1.96.05-.66.03-1.33.07-2,.12-.67.05-1.37.07-2.07.07Z" style="fill:#231f20;"/></svg>